<svg width="32" height="28" viewBox="0 0 32 28" fill="none" xmlns="http://www.w3.org/2000/svg">
<path d="M3.95752 0.430237V4.30505L22.2554 22.6029L24.1929 20.6653L3.95752 0.430237Z" fill="#055799"/>
<path d="M4.38794 0H8.26306L26.5609 18.2978L24.6233 20.2351L4.38794 0Z" fill="#07C6F9"/>
<path d="M28.1753 17.329L26.6686 18.836L24.731 20.7733L22.7935 22.7108L21.2867 24.2176L20.8562 25.9399L22.5782 25.5094L24.0853 24.0024L26.0225 22.0651L27.9601 20.1275L29.4668 18.6208L29.8973 16.8985L28.1753 17.329Z" fill="#1AD3AF"/>
<path d="M28.5303 25.5847L28.8211 25.2939L26.1302 22.603L25.592 23.1411L28.0356 25.5847C28.1724 25.7211 28.3936 25.7211 28.5303 25.5847Z" fill="#055799"/>
<path d="M29.5428 24.5725L29.252 24.8633L26.561 22.1724L27.0992 21.6342L29.5428 24.0779C29.6792 24.2146 29.6792 24.4361 29.5428 24.5725Z" fill="#07C6F9"/>
<path d="M30.4359 27.9998C31.2765 27.9998 31.9579 27.3184 31.9579 26.4778C31.9579 25.6372 31.2765 24.9557 30.4359 24.9557C29.5953 24.9557 28.9138 25.6372 28.9138 26.4778C28.9138 27.3184 29.5953 27.9998 30.4359 27.9998Z" fill="#1AD3AF"/>
<path d="M28.0003 0.430237V4.30505L9.70245 22.6029L7.76489 20.6653L28.0003 0.430237Z" fill="#055799"/>
<path d="M27.5699 0H23.6948L5.39697 18.2978L7.33453 20.2351L27.5699 0Z" fill="#07C6F9"/>
<path d="M3.78255 17.329L5.28931 18.836L7.22687 20.7733L9.16443 22.7108L10.6712 24.2176L11.1017 25.9399L9.37968 25.5094L7.87262 24.0024L5.93536 22.0651L3.99781 20.1275L2.49105 18.6208L2.06055 16.8985L3.78255 17.329Z" fill="#1AD3AF"/>
<path d="M3.42752 25.5847L3.13672 25.2939L5.82766 22.603L6.36578 23.1411L3.92218 25.5847C3.78547 25.7211 3.56422 25.7211 3.42752 25.5847Z" fill="#055799"/>
<path d="M2.41505 24.5725L2.70585 24.8633L5.39678 22.1724L4.85866 21.6342L2.41505 24.0779C2.27864 24.2146 2.27864 24.4361 2.41505 24.5725Z" fill="#07C6F9"/>
<path d="M1.52205 27.9998C2.36265 27.9998 3.04409 27.3184 3.04409 26.4778C3.04409 25.6372 2.36265 24.9557 1.52205 24.9557C0.681443 24.9557 0 25.6372 0 26.4778C0 27.3184 0.681443 27.9998 1.52205 27.9998Z" fill="#1AD3AF"/>
</svg>
