<svg width="43" height="28" viewBox="0 0 43 28" fill="none" xmlns="http://www.w3.org/2000/svg">
<path d="M31.7568 19.5577C31.6491 19.6436 31.5818 19.6894 31.5818 19.6894C31.5818 19.6894 31.6491 19.6436 31.7568 19.5577Z" fill="#D8D8D8"/>
<path d="M41.8812 9.66736C41.8812 9.66736 41.88 9.66898 41.878 9.67182C41.8776 9.67222 41.8776 9.67263 41.8771 9.67303C41.8751 9.67587 41.8723 9.67992 41.8686 9.68519C41.8678 9.6864 41.867 9.68721 41.8662 9.68843C41.8014 9.78 41.5169 10.1649 41.0611 10.5503C41.1608 10.7877 41.3431 11.0001 41.3476 11.2565C41.3516 11.5057 41.1822 11.7306 41.1741 11.9798C41.1644 12.274 41.3804 12.558 41.3062 12.8429C41.2361 13.1103 40.9338 13.2663 40.8597 13.5329C40.8273 13.6492 40.8427 13.7728 40.8317 13.8932C40.7864 14.4041 40.3025 14.7461 39.8702 15.0225C39.4379 15.2988 38.9626 15.6627 38.95 16.1756C38.9464 16.3316 38.9869 16.4937 38.9334 16.64C38.8224 16.9419 38.4208 16.9743 38.1238 17.0979C37.3932 17.4026 37.1072 18.4561 36.3251 18.5768C36.0516 18.619 35.7036 18.561 35.5593 18.7973C35.5168 18.8666 35.5038 18.9496 35.4815 19.0278C35.3664 19.4326 34.9649 19.7377 34.5439 19.7402C34.3194 19.7414 34.1006 19.666 33.8761 19.6575C33.6516 19.649 33.3951 19.7353 33.3149 19.9452C32.9308 19.9626 32.5398 20.004 32.1556 19.9983C32.0292 19.9963 31.857 19.9249 31.7083 19.8869C31.5965 19.9764 31.5264 20.0234 31.5264 20.0234C34.6642 23.1613 39.6854 17.8268 39.6854 17.8268C39.6854 17.8268 45.0191 12.8056 41.8812 9.66736Z" fill="#1AD3AF"/>
<path d="M35.6652 7.76741C35.7879 7.89019 35.8593 8.04578 35.8795 8.20705L37.8415 6.24508C38.1904 5.89621 38.1904 5.32528 37.8415 4.97641C37.4926 4.62753 36.9217 4.62753 36.5728 4.97641L34.6108 6.93838C34.7717 6.95904 34.9273 7.02995 35.0505 7.15273L35.6652 7.76741Z" fill="#07C6F9"/>
<path d="M29.024 13.1794C28.9012 13.0567 28.821 12.91 28.7853 12.7641L15.2149 26.3346C14.9409 26.6085 15.0025 27.1178 15.3514 27.4667C15.7003 27.8156 16.2096 27.8772 16.4835 27.6033L30.054 14.0328C29.9081 13.9971 29.7619 13.9169 29.6387 13.7941L29.024 13.1794Z" fill="#07C6F9"/>
<path d="M38.6125 16.3358C38.6644 16.1948 38.6251 16.0392 38.6287 15.8889C38.6409 15.3953 39.0983 15.0452 39.5145 14.779C39.9306 14.5132 40.3958 14.1842 40.4395 13.6927C40.4497 13.5768 40.4351 13.4577 40.4663 13.3459C40.538 13.0894 40.8289 12.9394 40.8962 12.6817C40.9679 12.4078 40.7601 12.1343 40.7694 11.8515C40.7771 11.6116 40.9404 11.3952 40.9363 11.1553C40.9323 10.9086 40.7568 10.7044 40.6608 10.4758C39.6385 11.3397 37.7199 12.1999 35.4872 9.48431L31.3433 13.6283C34.8648 16.5226 32.3737 18.889 31.6597 19.4599C31.8028 19.4968 31.9685 19.5652 32.09 19.5673C32.46 19.5729 32.836 19.5332 33.2055 19.5162C33.2829 19.3144 33.5297 19.2313 33.7457 19.2395C33.9616 19.2476 34.1724 19.3205 34.3883 19.3189C34.7935 19.3164 35.1797 19.0231 35.2907 18.6333C35.3122 18.5579 35.3247 18.4785 35.3657 18.4116C35.5046 18.1843 35.8397 18.2402 36.1027 18.1993C36.8556 18.083 37.1307 17.0692 37.8337 16.7763C38.119 16.6575 38.5059 16.6263 38.6125 16.3358Z" fill="#07C6F9"/>
<path d="M23.3121 11.1132C23.2262 11.2209 23.1804 11.2882 23.1804 11.2882C23.1804 11.2882 23.2262 11.2209 23.3121 11.1132Z" fill="#D8D8D8"/>
<path d="M33.2019 0.988809C33.2019 0.988809 33.2003 0.990025 33.1974 0.992051C33.197 0.992456 33.1966 0.992456 33.1962 0.992861C33.1934 0.994887 33.1893 0.997724 33.1841 1.00137C33.1829 1.00218 33.182 1.00299 33.1808 1.0038C33.0893 1.06863 32.7043 1.35308 32.319 1.80893C32.0815 1.70925 31.8692 1.52691 31.6127 1.52246C31.3635 1.5184 31.1386 1.68778 30.8894 1.69588C30.5953 1.7056 30.3112 1.48963 30.0264 1.56379C29.7589 1.63388 29.6029 1.93616 29.3363 2.01031C29.22 2.04273 29.0964 2.02733 28.9761 2.03827C28.4651 2.08365 28.1231 2.56746 27.8468 2.99981C27.5705 3.43215 27.2066 3.90745 26.6936 3.92001C26.5376 3.92366 26.3755 3.88314 26.2293 3.93662C25.9274 4.04765 25.895 4.4492 25.7714 4.74621C25.4667 5.47678 24.4132 5.76285 24.2924 6.54488C24.2503 6.81839 24.3082 7.16646 24.072 7.31071C24.0027 7.35325 23.9196 7.36622 23.8414 7.3885C23.4366 7.50358 23.1315 7.90513 23.1291 8.32613C23.1279 8.55061 23.2032 8.76942 23.2117 8.9939C23.2203 9.21838 23.1339 9.47487 22.9241 9.5551C22.9066 9.93923 22.8653 10.3302 22.871 10.7144C22.873 10.8408 22.9443 11.013 22.9824 11.1617C22.8929 11.2735 22.8458 11.3436 22.8458 11.3436C19.708 8.20579 25.0424 3.18458 25.0424 3.18458C25.0424 3.18458 30.064 -2.14904 33.2019 0.988809Z" fill="#1AD3AF"/>
<path d="M26.534 4.25717C26.675 4.20531 26.8306 4.24461 26.9809 4.24097C27.4745 4.22881 27.8246 3.77134 28.0908 3.3552C28.3566 2.93906 28.6856 2.4739 29.1771 2.43014C29.293 2.42001 29.4121 2.43459 29.524 2.40339C29.7804 2.33167 29.9304 2.04074 30.1881 1.97348C30.462 1.90176 30.7355 2.10962 31.0183 2.1003C31.2582 2.09261 31.4746 1.92931 31.7145 1.93336C31.9612 1.93741 32.1654 2.11287 32.394 2.2089C31.5301 3.23121 30.6699 5.14982 33.3855 7.38246L29.2415 11.5264C26.3472 8.00485 23.9809 10.496 23.4099 11.21C23.3731 11.0669 23.3046 10.9012 23.3026 10.7796C23.2969 10.4097 23.3366 10.0337 23.3536 9.66413C23.5554 9.58674 23.6385 9.33997 23.6304 9.124C23.6223 8.90803 23.5493 8.69733 23.5509 8.48136C23.5534 8.07616 23.8467 7.69001 24.2365 7.57898C24.3119 7.55751 24.3913 7.54495 24.4582 7.50402C24.6855 7.36504 24.6296 7.02994 24.6705 6.76697C24.7868 6.01411 25.8006 5.73898 26.0936 5.03596C26.2123 4.7507 26.2435 4.36374 26.534 4.25717Z" fill="#07C6F9"/>
<path d="M35.678 8.48367C35.6573 8.3228 35.5864 8.16721 35.4637 8.04403L34.849 7.42934C34.7262 7.30657 34.5706 7.23525 34.4093 7.21499C34.1836 7.18622 33.9474 7.25713 33.7752 7.42934L29.2872 11.9173C29.115 12.0895 29.0441 12.3258 29.0729 12.5514C29.0935 12.7123 29.1644 12.8679 29.2872 12.9911L29.9019 13.6058C30.0247 13.7285 30.1803 13.7999 30.3415 13.8201C30.5672 13.8489 30.8035 13.778 30.9757 13.6058L31.1479 13.4336L35.2918 9.28961L35.4637 9.1178C35.6359 8.94559 35.7068 8.70936 35.678 8.48367Z" fill="#055799"/>
<path d="M11.113 19.5577C11.2208 19.6436 11.2881 19.6894 11.2881 19.6894C11.2881 19.6894 11.2208 19.6436 11.113 19.5577Z" fill="#D8D8D8"/>
<path d="M0.988779 9.66736C0.988779 9.66736 0.989994 9.66898 0.99202 9.67182C0.992425 9.67222 0.992425 9.67263 0.992831 9.67303C0.994857 9.67587 0.997693 9.67992 1.00134 9.68519C1.00215 9.6864 1.00296 9.68721 1.00377 9.68843C1.0686 9.78 1.35305 10.1649 1.8089 10.5503C1.70922 10.7877 1.52688 11.0001 1.52242 11.2565C1.51837 11.5057 1.68774 11.7306 1.69585 11.9798C1.70557 12.274 1.4896 12.558 1.56375 12.8429C1.63385 13.1103 1.93613 13.2663 2.01028 13.5329C2.0427 13.6492 2.0273 13.7728 2.03824 13.8932C2.08362 14.4041 2.56743 14.7461 2.99978 15.0225C3.43212 15.2988 3.90742 15.6627 3.91998 16.1756C3.92363 16.3316 3.88311 16.4937 3.93659 16.64C4.04762 16.9419 4.44917 16.9743 4.74618 17.0979C5.47675 17.4026 5.76282 18.4561 6.54485 18.5768C6.81836 18.619 7.16642 18.561 7.31068 18.7973C7.35322 18.8666 7.36619 18.9496 7.38847 19.0278C7.50355 19.4326 7.9051 19.7377 8.3261 19.7402C8.55058 19.7414 8.76939 19.666 8.99387 19.6575C9.21835 19.649 9.47484 19.7353 9.55507 19.9452C9.93919 19.9626 10.3302 20.004 10.7143 19.9983C10.8408 19.9963 11.013 19.9249 11.1617 19.8869C11.2735 19.9764 11.3436 20.0234 11.3436 20.0234C8.20576 23.1613 3.18455 17.8268 3.18455 17.8268C3.18455 17.8268 -2.14907 12.8056 0.988779 9.66736Z" fill="#1AD3AF"/>
<path d="M7.20506 7.76744C7.08229 7.89022 7.01097 8.04581 6.99071 8.20708L5.02875 6.24511C4.67987 5.89624 4.67987 5.32531 5.02875 4.97644C5.37762 4.62756 5.94855 4.62756 6.29742 4.97644L8.25939 6.93841C8.09853 6.95907 7.94293 7.02998 7.81975 7.15276L7.20506 7.76744Z" fill="#055799"/>
<path d="M13.8462 13.1795C13.9689 13.0567 14.0492 12.91 14.0848 12.7641L27.6553 26.3346C27.9292 26.6085 27.8676 27.1179 27.5188 27.4667C27.1699 27.8156 26.6606 27.8772 26.3866 27.6033L12.8162 14.0328C12.962 13.9971 13.1083 13.9169 13.2315 13.7941L13.8462 13.1795Z" fill="#055799"/>
<path d="M4.25748 16.3358C4.20561 16.1948 4.24492 16.0392 4.24127 15.8889C4.22911 15.3953 3.77165 15.0452 3.35551 14.779C2.93937 14.5132 2.4742 14.1842 2.43044 13.6927C2.42031 13.5768 2.4349 13.4577 2.4037 13.3459C2.33198 13.0894 2.04105 12.9394 1.97378 12.6817C1.90206 12.4078 2.10993 12.1343 2.10061 11.8515C2.09291 11.6116 1.92962 11.3952 1.93367 11.1553C1.93772 10.9086 2.11317 10.7044 2.2092 10.4758C3.23152 11.3397 5.15013 12.1999 7.38277 9.48431L11.5267 13.6283C8.00515 16.5226 10.4963 18.889 11.2103 19.4599C11.0672 19.4968 10.9015 19.5652 10.7799 19.5673C10.41 19.5729 10.034 19.5332 9.66444 19.5162C9.58705 19.3144 9.34028 19.2313 9.12431 19.2395C8.90834 19.2476 8.69764 19.3205 8.48167 19.3189C8.07647 19.3164 7.69031 19.0231 7.57929 18.6333C7.55781 18.5579 7.54525 18.4785 7.50433 18.4116C7.36535 18.1843 7.03025 18.2402 6.76727 18.1993C6.01442 18.083 5.73929 17.0692 5.03627 16.7763C4.75101 16.6575 4.36404 16.6263 4.25748 16.3358Z" fill="#055799"/>
<path d="M19.5579 11.1132C19.6438 11.2209 19.6896 11.2882 19.6896 11.2882C19.6896 11.2882 19.6438 11.2209 19.5579 11.1132Z" fill="#D8D8D8"/>
<path d="M9.66821 0.98884C9.66821 0.98884 9.66983 0.990055 9.67267 0.992081C9.67308 0.992487 9.67348 0.992487 9.67389 0.992892C9.67672 0.994918 9.68077 0.997755 9.68604 1.0014C9.68726 1.00221 9.68807 1.00302 9.68928 1.00383C9.78086 1.06866 10.1658 1.35311 10.5511 1.80896C10.7886 1.70928 11.0009 1.52694 11.2574 1.52249C11.5066 1.51843 11.7315 1.68781 11.9807 1.69591C12.2749 1.70564 12.5589 1.48966 12.8437 1.56382C13.1112 1.63391 13.2672 1.93619 13.5338 2.01034C13.6501 2.04276 13.7737 2.02736 13.894 2.0383C14.405 2.08368 14.747 2.56749 15.0233 2.99984C15.2997 3.43218 15.6635 3.90748 16.1765 3.92004C16.3325 3.92369 16.4946 3.88317 16.6409 3.93665C16.9427 4.04768 16.9751 4.44923 17.0987 4.74624C17.4034 5.47681 18.457 5.76288 18.5777 6.54491C18.6198 6.81842 18.5619 7.16649 18.7981 7.31074C18.8674 7.35328 18.9505 7.36625 19.0287 7.38854C19.4335 7.50361 19.7386 7.90516 19.741 8.32616C19.7422 8.55064 19.6669 8.76945 19.6584 8.99393C19.6499 9.21841 19.7362 9.4749 19.9461 9.55513C19.9635 9.93926 20.0048 10.3303 19.9991 10.7144C19.9971 10.8408 19.9258 11.013 19.8877 11.1617C19.9773 11.2736 20.0243 11.3437 20.0243 11.3437C23.1621 8.20582 17.8277 3.18461 17.8277 3.18461C17.8277 3.18461 12.8061 -2.14901 9.66821 0.98884Z" fill="#1AD3AF"/>
<path d="M16.3361 4.25717C16.1951 4.20531 16.0395 4.24461 15.8892 4.24097C15.3956 4.22881 15.0456 3.77134 14.7793 3.3552C14.5135 2.93906 14.1845 2.4739 13.693 2.43014C13.5771 2.42001 13.458 2.43459 13.3462 2.40339C13.0897 2.33167 12.9397 2.04074 12.682 1.97348C12.4081 1.90176 12.1346 2.10962 11.8518 2.1003C11.6119 2.09261 11.3955 1.92931 11.1557 1.93336C10.9089 1.93741 10.7047 2.11287 10.4761 2.2089C11.34 3.23121 12.2003 5.14982 9.48462 7.38246L13.6286 11.5264C16.5229 8.00485 18.8893 10.496 19.4602 11.21C19.4971 11.0669 19.5655 10.9012 19.5676 10.7796C19.5732 10.4097 19.5335 10.0337 19.5165 9.66413C19.3147 9.58674 19.2317 9.33997 19.2398 9.124C19.2479 8.90803 19.3208 8.69733 19.3192 8.48136C19.3167 8.07616 19.0234 7.69001 18.6336 7.57898C18.5582 7.55751 18.4788 7.54495 18.4119 7.50402C18.1846 7.36504 18.2405 7.02994 18.1996 6.76697C18.0833 6.01411 17.0695 5.73898 16.7766 5.03596C16.6578 4.7507 16.6266 4.36374 16.3361 4.25717Z" fill="#055799"/>
<path d="M7.19201 8.48367C7.21268 8.3228 7.28359 8.16721 7.40636 8.04403L8.02105 7.42934C8.14382 7.30657 8.29942 7.23525 8.46069 7.21499C8.68638 7.18622 8.92261 7.25713 9.09482 7.42934L13.5828 11.9173C13.755 12.0895 13.8259 12.3258 13.7971 12.5514C13.7765 12.7123 13.7056 12.8679 13.5828 12.9911L12.9681 13.6058C12.8453 13.7285 12.6897 13.7999 12.5285 13.8201C12.3028 13.8489 12.0665 13.778 11.8943 13.6058L11.7221 13.4336L7.57817 9.28961L7.40636 9.1178C7.23415 8.94559 7.16324 8.70936 7.19201 8.48367Z" fill="#07C6F9"/>
</svg>
