<svg width="30" height="29" viewBox="0 0 30 29" fill="none" xmlns="http://www.w3.org/2000/svg">
<path d="M25.3599 0C25.3599 0 28.1067 7.43274 24.8467 9.84595C24.8467 9.84595 27.2524 12.2115 28.1674 14.5896C28.1674 14.5896 33.7806 8.27929 25.3599 0Z" fill="#1AD3AF"/>
<path d="M4.48484 0.176514C4.48484 0.176514 1.86387 7.65465 5.16444 10.0124C5.16444 10.0124 2.79893 12.4181 1.9245 14.8115C1.9245 14.8115 -3.79445 8.59718 4.48484 0.176514Z" fill="#1AD3AF"/>
<path d="M4.04227 18.3724C4.04227 18.3724 1.65406 18.0942 1.93452 16.0043C2.21498 13.9144 4.86871 10.3129 5.46526 10.3081C6.06181 10.3029 7.25692 10.5911 7.25692 10.5911C7.25692 10.5911 4.60836 14.7888 4.04227 18.3724Z" fill="#055799"/>
<path d="M11.4044 7.27551C11.4044 7.27551 5.4653 10.308 4.64893 19.5603C4.64893 19.5603 5.8291 18.0591 11.4799 16.222L11.4044 7.27551Z" fill="#07C6F9"/>
<path d="M12.3795 16.8109C12.3795 16.8109 4.64105 18.6657 3.17525 21.6606C3.17525 21.6606 2.29077 22.8608 3.19048 23.4499L3.79191 24.0413C3.79191 24.0413 8.23472 20.4249 11.8134 20.3948L11.2623 25.7677L14.2672 28.4263L15.1617 28.4189L14.9574 4.26377C14.9574 4.26377 12.8649 3.68503 12.2936 6.67209L12.3795 16.8109Z" fill="#055799"/>
<path d="M26.1101 18.186C26.1101 18.186 28.4932 17.8676 28.1774 15.7825C27.8616 13.6975 25.1472 10.1417 24.5509 10.1466C23.9544 10.1518 22.7642 10.4598 22.7642 10.4598C22.7642 10.4598 25.4834 14.6124 26.1101 18.186Z" fill="#055799"/>
<path d="M18.5615 7.21497C18.5615 7.21497 24.5509 10.1466 25.5239 19.3836C25.5239 19.3836 24.3184 17.9026 18.6371 16.1612L18.5615 7.21497Z" fill="#07C6F9"/>
<path d="M17.7474 16.7654C17.7474 16.7654 25.516 18.489 27.0324 21.4585C27.0324 21.4585 27.937 22.6439 27.0476 23.2479L26.4563 23.8493C26.4563 23.8493 21.9528 20.3085 18.3744 20.339L19.0163 25.7019L16.0569 28.4111L15.1623 28.4185L14.958 4.26344C14.958 4.26344 17.0405 3.64936 17.662 6.62636L17.7474 16.7654Z" fill="#055799"/>
</svg>
