<svg width="18" height="18" viewBox="0 0 18 18" fill="none" xmlns="http://www.w3.org/2000/svg">
<path fill-rule="evenodd" clip-rule="evenodd" d="M3.96027 0C4.37448 0 4.71027 0.33579 4.71027 0.75V2.41763C7.53797 2.1658 10.3826 2.1658 13.2103 2.41763V0.75C13.2103 0.33579 13.5461 0 13.9603 0C14.3745 0 14.7103 0.33579 14.7103 0.75V2.56644C16.2033 2.77754 17.3829 3.95847 17.5825 5.46484L17.6691 6.11779C18.0331 8.8641 18.0017 11.6484 17.5757 14.3859C17.3647 15.7419 16.2631 16.7835 14.8973 16.9181L13.7043 17.0358C10.5493 17.3469 7.37127 17.3469 4.2162 17.0358L3.02319 16.9181C1.65745 16.7835 0.555788 15.7419 0.344778 14.3859C-0.0811818 11.6484 -0.112622 8.8641 0.251418 6.11779L0.337968 5.46484C0.537648 3.95845 1.7172 2.77751 3.21027 2.56643V0.75C3.21027 0.33579 3.54606 0 3.96027 0ZM4.40543 3.9528C7.43467 3.65408 10.4859 3.65408 13.5151 3.9528L14.4205 4.0421C15.2873 4.12757 15.9811 4.79854 16.0955 5.66194L16.1821 6.31489C16.2123 6.543 16.2397 6.7714 16.2642 7H1.65633C1.68082 6.7714 1.70817 6.54301 1.73841 6.3149L1.82496 5.66194C1.93941 4.79854 2.63323 4.12757 3.49998 4.0421L4.40543 3.9528ZM1.5371 8.5C1.43892 10.3881 1.53565 12.2832 1.82694 14.1552C1.93278 14.8354 2.48536 15.3578 3.1704 15.4254L4.36341 15.543C7.42057 15.8445 10.5 15.8445 13.5571 15.543L14.7501 15.4254C15.4351 15.3578 15.9877 14.8354 16.0936 14.1552C16.3849 12.2832 16.4816 10.3881 16.3834 8.5H1.5371Z" fill="#055799"/>
</svg>
