<?xml version="1.0" encoding="UTF-8"?><svg id="Layer_1" xmlns="http://www.w3.org/2000/svg" xmlns:xlink="http://www.w3.org/1999/xlink" viewBox="0 0 50 50"><defs><mask id="mask" x="2.5" y="2.5" width="45" height="45" maskUnits="userSpaceOnUse"><g id="mask0_590_855"><path d="M7.19,20.31H42.81v20.63c0,.5-.2,.97-.55,1.33-.35,.35-.83,.55-1.33,.55H9.06c-.5,0-.97-.2-1.33-.55-.35-.35-.55-.83-.55-1.33V20.31Z" style="fill:#fff; stroke:#fff; stroke-linejoin:round; stroke-width:1.3px;"/><path d="M7.19,11.87c0-.5,.2-.97,.55-1.33,.35-.35,.83-.55,1.33-.55h31.88c.5,0,.97,.2,1.33,.55,.35,.35,.55,.83,.55,1.33v8.44H7.19V11.87Z" style="fill:none; stroke:#fff; stroke-linejoin:round; stroke-width:1.3px;"/><path d="M17.5,31.56l5.62,5.62,11.25-11.25" style="fill:none; stroke:#000; stroke-linecap:round; stroke-linejoin:round; stroke-width:1.3px;"/><path d="M17.5,7.19v7.5m15-7.5v7.5" style="fill:none; stroke:#fff; stroke-linecap:round; stroke-width:1.3px;"/></g></mask></defs><g style="mask:url(#mask);"><path d="M2.5,2.5H47.5V47.5H2.5V2.5Z" style="fill:#bababa;"/></g></svg>