<?xml version="1.0" encoding="UTF-8"?><svg id="Layer_1" xmlns="http://www.w3.org/2000/svg" viewBox="0 0 50 50"><path d="M40.15,14c-1.54-2.57-4.37-3.85-7.45-3.85h-15.41c-3.08,0-5.91,1.28-7.45,3.85-5.91,8.99-7.19,22.6-3.08,25.43,4.11,2.83,13.35-9.5,18.23-9.5s13.87,12.33,18.23,9.5c4.11-2.83,2.83-16.44-3.08-25.43Zm-20.29,8.99h-2.57v2.57h-2.57v-2.57h-2.57v-2.57h2.57v-2.57h2.57v2.57h2.57v2.57Zm13.87,1.28c0,1.28-1.03,2.31-2.31,2.31s-2.31-1.03-2.31-2.31,1.03-2.31,2.31-2.31,2.31,1.03,2.31,2.31Zm4.88-5.14c0,1.28-1.03,2.31-2.31,2.31s-2.31-1.03-2.31-2.31,1.03-2.31,2.31-2.31,2.31,1.03,2.31,2.31Z" style="fill:#bababa;"/></svg>