<svg width="17" height="18" viewBox="0 0 17 18" fill="none" xmlns="http://www.w3.org/2000/svg">
<path fill-rule="evenodd" clip-rule="evenodd" d="M16.6556 14.6406C17.1006 10.3639 17.1006 6.05257 16.6556 1.77587C16.4969 0.250819 14.7385 -0.52169 13.508 0.39303L9.40441 3.44344C8.15391 4.37295 6.63731 4.8749 5.0792 4.8749H1.25C0.55965 4.8749 0 5.43454 0 6.1249V10.2915C0 10.9819 0.55964 11.5415 1.25 11.5415H1.87428L1.02892 14.6965C0.93472 15.048 1.10653 15.4165 1.4364 15.5703L5.11754 17.2869C5.31847 17.3806 5.55055 17.3806 5.75147 17.2869C5.9524 17.1932 6.10158 17.0154 6.15896 16.8013L7.42161 12.0888C7.43511 12.0388 7.44311 11.9886 7.44601 11.9388C8.14351 12.1797 8.80461 12.5272 9.40441 12.973L13.508 16.0234C14.7385 16.9381 16.4969 16.1656 16.6556 14.6406ZM15.1636 1.9311C15.5979 6.10459 15.5979 10.3119 15.1636 14.4853C15.1253 14.854 14.7003 15.0407 14.4029 14.8196L10.2992 11.7692C8.79011 10.6473 6.95961 10.0415 5.0792 10.0415H1.5V6.3749H5.0792C6.95961 6.3749 8.79011 5.7691 10.2992 4.64727L14.4029 1.59686C14.7003 1.37577 15.1253 1.56249 15.1636 1.9311ZM6.00696 11.6011C5.70056 11.5616 5.3907 11.5415 5.0792 11.5415H3.42719L2.64069 14.4768L4.94141 15.5497L5.97276 11.7006C5.98198 11.6662 5.99344 11.633 6.00696 11.6011Z" fill="#949494"/>
</svg>
