<svg width="375" height="75" viewBox="0 0 375 75" fill="none" xmlns="http://www.w3.org/2000/svg">
<path fill-rule="evenodd" clip-rule="evenodd" d="M219.799 33.9941C233.109 55.1531 252.391 75 277.388 75L337.5 75C358.211 75 375 58.2107 375 37.5V37.5C375 16.7894 358.211 2.90498e-05 337.5 2.72392e-05L37.5 1.01239e-06C16.7893 -7.98194e-07 5.08894e-06 16.7893 3.27835e-06 37.5V37.5C1.46777e-06 58.2107 16.7893 75 37.5 75L96.6118 75C121.609 75 140.891 55.1531 154.201 33.9941C162.783 20.3523 174.317 12 187 12C199.683 12 211.217 20.3523 219.799 33.9941Z" fill="white"/>
</svg>
