<svg width="51" height="50" viewBox="0 0 51 50" fill="none" xmlns="http://www.w3.org/2000/svg">
<path fill-rule="evenodd" clip-rule="evenodd" d="M50.4992 11.667C50.4992 5.22369 45.2759 0.000389099 38.8326 0.000389099H28.332C27.688 0.000389099 27.166 0.522415 27.166 1.16637C27.166 1.81032 27.688 2.33235 28.332 2.33235H37.6662C43.4653 2.33235 48.1665 7.03345 48.1665 12.8326V22.1672C48.1665 22.8114 48.6887 23.3335 49.3328 23.3335C49.977 23.3335 50.4992 22.8113 50.4992 22.1672V11.667Z" fill="#8ECCFD"/>
<path fill-rule="evenodd" clip-rule="evenodd" d="M0.500094 38.3332C0.500094 44.7764 5.72341 49.9997 12.1667 49.9997L22.6669 49.9997C23.3111 49.9997 23.8333 49.4775 23.8333 48.8334C23.8333 48.1892 23.3111 47.667 22.6669 47.667L13.333 47.667C7.53389 47.667 2.83278 42.9659 2.83278 37.1668L2.83278 27.8329C2.83278 27.1888 2.31059 26.6666 1.66644 26.6666C1.02229 26.6666 0.500095 27.1888 0.500095 27.8329L0.500094 38.3332Z" fill="#8ECCFD"/>
<path fill-rule="evenodd" clip-rule="evenodd" d="M38.8329 49.9999C45.2762 49.9999 50.4995 44.7766 50.4995 38.3334L50.4995 27.8336C50.4995 27.1892 49.9771 26.6668 49.3327 26.6668C48.6883 26.6668 48.1659 27.1892 48.1659 27.8336L48.1659 37.1669C48.1659 42.9658 43.465 47.6667 37.6661 47.6667L28.333 47.6667C27.6887 47.6667 27.1664 48.189 27.1664 48.8333C27.1664 49.4776 27.6887 49.9999 28.333 49.9999L38.8329 49.9999Z" fill="#8ECCFD"/>
<path fill-rule="evenodd" clip-rule="evenodd" d="M12.1666 -6.52273e-05C5.72331 -6.60722e-05 0.500002 5.22325 0.500002 11.6665L0.5 22.1663C0.5 22.8107 1.0224 23.3331 1.66681 23.3331C2.31123 23.3331 2.83363 22.8107 2.83363 22.1663L2.83363 12.8333C2.83363 7.03442 7.53454 2.33351 13.3334 2.33351L22.6664 2.33351C23.3108 2.33351 23.8332 1.81113 23.8332 1.16672C23.8332 0.522325 23.3108 -6.37659e-05 22.6664 -6.38504e-05L12.1666 -6.52273e-05Z" fill="#8ECCFD"/>
</svg>
