<svg width="70" height="70" viewBox="0 0 70 70" fill="none" xmlns="http://www.w3.org/2000/svg">
<path fill-rule="evenodd" clip-rule="evenodd" d="M70.0002 16.3333C70.0002 7.31269 62.6875 0 53.6668 0H38.9668C38.0647 0 37.3335 0.731241 37.3335 1.63327V1.63327C37.3335 2.5353 38.0647 3.26654 38.9668 3.26654H52.0335C60.1521 3.26654 66.7335 9.84797 66.7335 17.9666V31.0334C66.7335 31.9354 67.4648 32.6667 68.3668 32.6667V32.6667C69.2689 32.6667 70.0002 31.9354 70.0002 31.0334V16.3333Z" fill="#8ECCFD"/>
<path fill-rule="evenodd" clip-rule="evenodd" d="M-0.000162604 53.6667C-0.000163393 62.6873 7.31251 70 16.3332 70L31.0332 70C31.9353 70 32.6665 69.2688 32.6665 68.3667V68.3667C32.6665 67.4647 31.9353 66.7335 31.0332 66.7335L17.9665 66.7335C9.8479 66.7335 3.26647 60.152 3.26647 52.0334L3.26647 38.9666C3.26647 38.0646 2.53521 37.3333 1.63316 37.3333V37.3333C0.731101 37.3333 -0.00016124 38.0646 -0.000161319 38.9666L-0.000162604 53.6667Z" fill="#8ECCFD"/>
<path fill-rule="evenodd" clip-rule="evenodd" d="M53.6667 69.9999C62.6873 69.9999 70 62.6872 70 53.6666L70 38.9666C70 38.0645 69.2687 37.3333 68.3666 37.3333V37.3333C67.4645 37.3333 66.7333 38.0645 66.7333 38.9666L66.7333 52.0333C66.7333 60.1518 60.1519 66.7332 52.0333 66.7332L38.9667 66.7332C38.0646 66.7332 37.3333 67.4645 37.3333 68.3666V68.3666C37.3333 69.2686 38.0646 69.9999 38.9667 69.9999L53.6667 69.9999Z" fill="#8ECCFD"/>
<path fill-rule="evenodd" clip-rule="evenodd" d="M16.3333 8.22505e-05C7.31269 8.10676e-05 3.32477e-06 7.31276 2.14186e-06 16.3334L2.14191e-07 31.0334C9.58965e-08 31.9355 0.731285 32.6667 1.63337 32.6667V32.6667C2.53546 32.6667 3.26674 31.9355 3.26674 31.0334L3.26675 17.9667C3.26675 9.84817 9.84814 3.26676 17.9667 3.26676L31.0333 3.26677C31.9354 3.26677 32.6667 2.53549 32.6667 1.63343V1.63343C32.6667 0.731356 31.9354 8.42965e-05 31.0333 8.41782e-05L16.3333 8.22505e-05Z" fill="#8ECBFD"/>
</svg>
