<?xml version="1.0" encoding="UTF-8"?><svg id="Layer_1" xmlns="http://www.w3.org/2000/svg" xmlns:xlink="http://www.w3.org/1999/xlink" viewBox="0 0 50 50"><defs><clipPath id="clippath"><rect x="4.28" y="8.57" width="41.43" height="32.86" style="fill:none;"/></clipPath></defs><g style="clip-path:url(#clippath);"><g><path d="M44.16,8.57h-12.43c-.85,0-2.05,.49-2.65,1.09l-15.41,15.28c-.29,.29-.45,.68-.45,1.09s.16,.8,.45,1.09l13.34,13.22c.29,.29,.69,.45,1.1,.45s.81-.16,1.1-.45l15.41-15.28c.6-.6,1.1-1.78,1.1-2.63V10.11c0-.41-.17-.8-.46-1.09-.29-.29-.69-.45-1.1-.45h0Zm-7.77,12.32c-.41,0-.81-.08-1.19-.24-.38-.15-.72-.38-1.01-.67-.29-.29-.52-.63-.67-1-.16-.37-.24-.77-.24-1.18,0-.4,.08-.81,.24-1.18,.16-.37,.39-.71,.67-1,.29-.29,.63-.51,1.01-.67,.38-.15,.78-.23,1.19-.23,.82,0,1.61,.33,2.2,.9,.58,.58,.91,1.36,.91,2.18,0,.82-.33,1.6-.91,2.18-.58,.58-1.37,.9-2.2,.9h0Z" style="fill:#bababa;"/><path d="M8.43,26.03L26.04,8.57h-2.59c-.85,0-2.05,.49-2.65,1.09L5.38,24.94c-.29,.29-.45,.68-.45,1.09s.16,.8,.45,1.09l13.34,13.22c.29,.29,.69,.45,1.1,.45s.81-.16,1.1-.45l.97-.97-13.47-13.35h0Z" style="fill:#bababa;"/></g></g></svg>