<?xml version="1.0" encoding="UTF-8"?><svg id="Layer_1" xmlns="http://www.w3.org/2000/svg" viewBox="0 0 50 50"><path d="M22.09,14.89l-9.7,9.7c-.23,.23-.23,.61,0,.84l9.7,9.7c.18,.18,.22,.45,.11,.68l-2.05,4.09c-.18,.36-.66,.44-.95,.15L4.59,25.42c-.23-.23-.23-.61,0-.84l14.62-14.62c.29-.29,.77-.21,.95,.15l2.05,4.09c.11,.23,.07,.5-.11,.68Zm5.81,20.23l9.7-9.7c.23-.23,.23-.61,0-.84l-9.7-9.7c-.18-.18-.22-.45-.11-.68l2.05-4.09c.18-.36,.66-.44,.95-.15l14.62,14.62c.23,.23,.23,.61,0,.84l-14.62,14.62c-.29,.29-.77,.21-.95-.15l-2.05-4.09c-.11-.23-.07-.5,.11-.68Z" style="fill:#bababa;"/></svg>