<?xml version="1.0" encoding="UTF-8"?><svg id="Layer_1" xmlns="http://www.w3.org/2000/svg" viewBox="0 0 50 50"><path d="M34.04,22.53c2.45,0,4.72,.77,6.58,2.07v-7c0-1.82-1.46-3.29-3.29-3.29h-6.58v-3.29c0-1.82-1.46-3.29-3.29-3.29h-6.58c-1.82,0-3.29,1.46-3.29,3.29v3.29h-6.58c-1.82,0-3.27,1.46-3.27,3.29l-.02,18.08c0,1.82,1.46,3.29,3.29,3.29h12.62c-.83-1.75-1.21-3.69-1.09-5.63,.12-1.94,.72-3.81,1.76-5.46,1.04-1.64,2.47-2.99,4.17-3.93,1.7-.94,3.61-1.43,5.55-1.43Zm-13.15-11.51h6.58v3.29h-6.58v-3.29Z" style="fill:#bababa;"/><path d="M34.04,25.82c-4.54,0-8.22,3.68-8.22,8.22s3.68,8.22,8.22,8.22,8.22-3.68,8.22-8.22-3.68-8.22-8.22-8.22Zm2.71,12.08l-3.53-3.53v-5.26h1.64v4.59l3.04,3.04-1.15,1.17Z" style="fill:#bababa;"/></svg>