<svg width="116" height="129" viewBox="0 0 116 129" fill="none" xmlns="http://www.w3.org/2000/svg">
<g clip-path="url(#clip0_3_127)">
<path d="M60.6948 19.1196L80.7059 39.1318L25.4169 94.4208C22.9121 96.9255 18.6309 95.1512 18.6309 91.6099V57.405C18.6309 56.3502 19.0497 55.3395 19.7952 54.5941L55.2697 19.1196C56.768 17.6223 59.1965 17.6223 60.6948 19.1196Z" fill="#055799"/>
<path d="M55.1721 19.2184L35.2588 39.1317L90.5478 94.4208C93.0526 96.9255 97.3338 95.1511 97.3338 91.6099V57.405C97.3338 56.3502 96.9149 55.3395 96.1695 54.5941L60.7938 19.2184C59.2407 17.6653 56.7242 17.6653 55.1721 19.2184Z" fill="#07C6F9"/>
<path d="M57.983 61.8549L35.2588 39.1317L49.6653 70.1725L57.983 61.8549Z" fill="url(#paint0_linear_3_127)"/>
<path d="M83.4458 1.65193C83.4458 1.65193 89.8741 20.8832 81.8594 27.8228C81.8594 27.8228 91.1501 33.0063 93.497 39.7536C93.4959 39.7536 107.04 21.547 83.4458 1.65193Z" fill="#07C6F9"/>
<path d="M89.6367 46.7502C89.6367 46.7502 95.1789 43.7879 92.4959 38.9739C89.8129 34.1599 81.3889 27.4544 79.9335 28.0129C78.4782 28.5714 74.0369 31.0504 74.0369 31.0504C74.0369 31.0504 86.0643 38.5797 89.6367 46.7502Z" fill="#055799"/>
<path d="M32.5079 1.65193C32.5079 1.65193 26.0795 20.8832 34.0943 27.8228C34.0943 27.8228 24.8035 33.0063 22.4567 39.7536C22.4567 39.7536 8.91262 21.547 32.5079 1.65193Z" fill="#055799"/>
<path d="M26.3167 46.7502C26.3167 46.7502 20.7744 43.7879 23.4575 38.9739C26.1405 34.1599 34.5645 27.4544 36.0199 28.0129C37.4752 28.5714 41.9165 31.0504 41.9165 31.0504C41.9165 31.0504 29.889 38.5797 26.3167 46.7502Z" fill="#07C6F9"/>
</g>
<path d="M11.0938 114.719C11.1771 114.844 11.2448 114.974 11.2969 115.109C11.3594 115.234 11.3906 115.323 11.3906 115.375C11.3906 115.448 11.3802 115.51 11.3594 115.562C11.3385 115.604 11.3073 115.656 11.2656 115.719C10.8698 115.896 10.4688 116.078 10.0625 116.266C9.66667 116.453 9.26042 116.63 8.84375 116.797C8.73958 116.839 8.64062 116.88 8.54688 116.922C8.45312 116.964 8.34896 117.005 8.23438 117.047C8.21354 117.068 8.16667 117.089 8.09375 117.109C8.03125 117.12 7.97396 117.125 7.92188 117.125C7.94271 117.333 7.95312 117.547 7.95312 117.766C7.96354 117.984 7.97396 118.203 7.98438 118.422C7.98438 118.484 7.99479 118.547 8.01562 118.609C8.03646 118.661 8.04688 118.719 8.04688 118.781C8.06771 118.979 8.07812 119.172 8.07812 119.359C8.07812 119.547 8.08854 119.74 8.10938 119.938C8.49479 119.771 8.875 119.604 9.25 119.438C9.63542 119.26 10.0208 119.089 10.4062 118.922C10.4688 118.932 10.5365 118.943 10.6094 118.953C10.6823 118.964 10.75 118.984 10.8125 119.016C10.8333 119.036 10.8542 119.062 10.875 119.094C10.8958 119.125 10.9219 119.151 10.9531 119.172C10.9531 119.224 10.9844 119.302 11.0469 119.406C11.1198 119.5 11.1562 119.604 11.1562 119.719C11.1562 119.74 11.1719 119.776 11.2031 119.828C11.2344 119.87 11.2552 119.901 11.2656 119.922C11.2656 120.026 11.2604 120.083 11.25 120.094C11.3229 120.146 11.3698 120.214 11.3906 120.297C11.4219 120.38 11.4375 120.464 11.4375 120.547C11.25 120.755 11.0625 120.896 10.875 120.969C10.6979 121.042 10.5156 121.12 10.3281 121.203C10.276 121.234 10.2188 121.266 10.1562 121.297C10.0938 121.328 10.0312 121.359 9.96875 121.391C9.88542 121.422 9.80208 121.453 9.71875 121.484C9.64583 121.505 9.56771 121.536 9.48438 121.578C9.35938 121.651 9.21875 121.734 9.0625 121.828C8.90625 121.922 8.76562 121.979 8.64062 122C8.55729 122.021 8.48438 122.036 8.42188 122.047C8.36979 122.047 8.30729 122.073 8.23438 122.125C8.22396 122.25 8.21875 122.375 8.21875 122.5C8.22917 122.615 8.23438 122.729 8.23438 122.844C8.23438 122.969 8.22396 123.094 8.20312 123.219C8.19271 123.333 8.1875 123.453 8.1875 123.578C8.1875 123.786 8.17708 123.995 8.15625 124.203C8.13542 124.401 8.125 124.599 8.125 124.797C8.125 124.922 8.13021 125.047 8.14062 125.172C8.15104 125.286 8.15625 125.401 8.15625 125.516C8.15625 125.578 8.14583 125.635 8.125 125.688C8.10417 125.74 8.08333 125.792 8.0625 125.844C7.91667 125.865 7.82812 125.865 7.79688 125.844C7.76562 125.812 7.72917 125.786 7.6875 125.766C7.63542 125.766 7.59896 125.786 7.57812 125.828C7.56771 125.87 7.53646 125.901 7.48438 125.922C7.44271 125.911 7.39583 125.911 7.34375 125.922C7.30208 125.922 7.26562 125.911 7.23438 125.891C7.15104 125.922 7.07292 125.958 7 126C6.9375 126.042 6.86458 126.073 6.78125 126.094C6.625 126.073 6.52604 126.062 6.48438 126.062C6.45312 126.073 6.41667 126.083 6.375 126.094C6.30208 126.021 6.26562 125.932 6.26562 125.828C6.27604 125.714 6.25 125.615 6.1875 125.531C6.1875 125.427 6.17708 125.365 6.15625 125.344C6.13542 125.312 6.125 125.286 6.125 125.266C6.125 125.234 6.125 125.203 6.125 125.172C6.13542 125.13 6.14062 125.089 6.14062 125.047C6.14062 124.953 6.13542 124.88 6.125 124.828C6.13542 124.766 6.14583 124.672 6.15625 124.547C6.16667 124.411 6.17708 124.276 6.1875 124.141C6.19792 123.995 6.20312 123.854 6.20312 123.719C6.20312 123.583 6.20312 123.474 6.20312 123.391C6.20312 123.339 6.21354 123.297 6.23438 123.266C6.25521 123.224 6.26562 123.177 6.26562 123.125C6.26562 123.042 6.26042 122.969 6.25 122.906C6.25 122.833 6.25 122.76 6.25 122.688C6.25 122.542 6.25 122.396 6.25 122.25C6.26042 122.104 6.26562 121.958 6.26562 121.812C6.26562 121.365 6.23958 120.927 6.1875 120.5C6.14583 120.062 6.125 119.625 6.125 119.188C6.125 118.948 6.11458 118.688 6.09375 118.406C6.07292 118.115 6.04688 117.849 6.01562 117.609C6.01562 117.557 6.00521 117.516 5.98438 117.484C5.97396 117.443 5.96875 117.401 5.96875 117.359C5.95833 117.234 5.95312 117.109 5.95312 116.984C5.95312 116.849 5.95312 116.714 5.95312 116.578C5.95312 116.495 5.95312 116.38 5.95312 116.234C5.95312 116.078 5.95312 115.922 5.95312 115.766C5.95312 115.599 5.95312 115.443 5.95312 115.297C5.96354 115.151 5.97396 115.047 5.98438 114.984C5.98438 114.974 6.01562 114.958 6.07812 114.938C6.14062 114.906 6.18229 114.891 6.20312 114.891C6.25521 114.891 6.29688 114.906 6.32812 114.938C6.35938 114.969 6.39583 115 6.4375 115.031C6.47917 115 6.52083 114.984 6.5625 114.984C6.61458 114.984 6.66667 114.984 6.71875 114.984C6.875 114.953 6.96875 114.958 7 115C7.04167 115.031 7.07292 115.047 7.09375 115.047C7.125 115.047 7.15104 115.031 7.17188 115C7.19271 114.969 7.21875 114.953 7.25 114.953C7.33333 114.953 7.38021 114.974 7.39062 115.016C7.41146 115.057 7.44271 115.078 7.48438 115.078C7.52604 115.078 7.55729 115.062 7.57812 115.031C7.59896 115 7.61979 114.984 7.64062 114.984C7.67188 114.984 7.70312 114.995 7.73438 115.016C7.76562 115.026 7.79688 115.031 7.82812 115.031C7.88021 115.031 7.9375 115.016 8 114.984C8.0625 114.943 8.11979 114.911 8.17188 114.891C8.25521 114.87 8.32812 114.844 8.39062 114.812C8.46354 114.781 8.53646 114.755 8.60938 114.734C8.76562 114.641 8.88021 114.583 8.95312 114.562C9.03646 114.531 9.11979 114.495 9.20312 114.453C9.38021 114.37 9.54688 114.292 9.70312 114.219C9.86979 114.135 10.0417 114.057 10.2188 113.984C10.3125 113.984 10.375 113.964 10.4062 113.922C10.4792 113.953 10.5729 113.958 10.6875 113.938C10.8125 114.052 10.8906 114.141 10.9219 114.203C10.9635 114.266 11.0104 114.323 11.0625 114.375C11.125 114.458 11.1667 114.5 11.1875 114.5C11.1875 114.531 11.1719 114.568 11.1406 114.609C11.1094 114.651 11.0938 114.688 11.0938 114.719ZM18.7344 123.328C18.8073 123.422 18.849 123.5 18.8594 123.562C18.8802 123.615 18.901 123.672 18.9219 123.734C18.9427 123.786 18.9583 123.839 18.9688 123.891C18.9896 123.943 19 123.974 19 123.984C19 124.057 18.9844 124.12 18.9531 124.172C18.9323 124.214 18.8958 124.271 18.8438 124.344C18.4271 124.5 18.0156 124.656 17.6094 124.812C17.2031 124.958 16.7865 125.104 16.3594 125.25C16.2448 125.281 16.1406 125.318 16.0469 125.359C15.9531 125.391 15.849 125.417 15.7344 125.438C15.7135 125.458 15.6771 125.479 15.625 125.5C15.5833 125.51 15.5312 125.526 15.4688 125.547C15.4062 125.568 15.3438 125.589 15.2812 125.609C15.2292 125.62 15.1927 125.625 15.1719 125.625C15.0885 125.646 14.9948 125.656 14.8906 125.656C14.7969 125.646 14.7031 125.646 14.6094 125.656C14.5573 125.667 14.5208 125.693 14.5 125.734C14.4792 125.776 14.4531 125.823 14.4219 125.875C14.401 125.917 14.3646 125.958 14.3125 126C14.2604 126.031 14.1875 126.047 14.0938 126.047C14 126.047 13.9062 126.042 13.8125 126.031C13.7188 126.021 13.6198 125.995 13.5156 125.953C13.4948 125.922 13.4844 125.885 13.4844 125.844C13.4948 125.792 13.4896 125.75 13.4688 125.719C13.375 125.708 13.3021 125.719 13.25 125.75C13.1979 125.771 13.1458 125.786 13.0938 125.797C13.0625 125.755 13.0365 125.708 13.0156 125.656C13.0052 125.594 12.9792 125.542 12.9375 125.5C12.9271 125.448 12.9219 125.396 12.9219 125.344C12.9219 125.292 12.9219 125.24 12.9219 125.188C12.9219 125.115 12.9219 125.031 12.9219 124.938C12.9323 124.833 12.9531 124.755 12.9844 124.703C13.0156 124.109 13.0312 123.516 13.0312 122.922C13.0312 122.328 13.0312 121.734 13.0312 121.141C13.0312 121.078 13.0312 121 13.0312 120.906C13.0312 120.802 13.026 120.698 13.0156 120.594C13.0156 120.49 13.0104 120.396 13 120.312C13 120.219 12.9948 120.151 12.9844 120.109C12.9948 120.036 13 119.969 13 119.906C13 119.833 13 119.76 13 119.688C13 119.625 13 119.568 13 119.516C13 119.464 12.9896 119.411 12.9688 119.359C12.9792 119.318 12.9844 119.26 12.9844 119.188C12.9844 119.135 12.9792 119.083 12.9688 119.031C12.9583 118.979 12.9531 118.927 12.9531 118.875C12.9531 118.792 12.9531 118.714 12.9531 118.641C12.9635 118.557 12.9688 118.474 12.9688 118.391C12.9688 118.12 12.9531 117.854 12.9219 117.594C12.901 117.323 12.8906 117.052 12.8906 116.781C12.8906 116.427 12.8854 116.073 12.875 115.719C12.875 115.365 12.8698 115.01 12.8594 114.656C12.901 114.552 12.9219 114.464 12.9219 114.391C13.0677 114.318 13.1823 114.292 13.2656 114.312C13.349 114.333 13.4323 114.344 13.5156 114.344C13.5677 114.344 13.6146 114.339 13.6562 114.328C13.6979 114.318 13.7396 114.302 13.7812 114.281C13.8333 114.292 13.875 114.307 13.9062 114.328C13.9479 114.339 13.9948 114.344 14.0469 114.344C14.2031 114.312 14.2865 114.307 14.2969 114.328C14.3177 114.349 14.3438 114.37 14.375 114.391C14.4167 114.38 14.4479 114.365 14.4688 114.344C14.5 114.312 14.5365 114.297 14.5781 114.297C14.6406 114.297 14.6875 114.339 14.7188 114.422C14.75 114.495 14.7865 114.557 14.8281 114.609C14.8281 114.724 14.849 114.828 14.8906 114.922C14.9115 115.349 14.9167 115.771 14.9062 116.188C14.9062 116.604 14.9219 117.021 14.9531 117.438C14.9635 117.625 14.974 117.823 14.9844 118.031C15.0052 118.229 15.0156 118.422 15.0156 118.609C15.0156 118.922 15.0156 119.24 15.0156 119.562C15.026 119.875 15.0312 120.193 15.0312 120.516C15.0312 120.568 15.0312 120.615 15.0312 120.656C15.0417 120.698 15.0469 120.745 15.0469 120.797C15.0469 120.922 15.0417 121.042 15.0312 121.156C15.0208 121.271 15.0156 121.385 15.0156 121.5V122.719C15.0156 122.823 15.0104 122.932 15 123.047C15 123.151 15.0052 123.255 15.0156 123.359L15.0781 123.547C15.1927 123.505 15.3073 123.464 15.4219 123.422C15.5469 123.37 15.6771 123.333 15.8125 123.312C15.8958 123.292 15.974 123.271 16.0469 123.25C16.1198 123.229 16.1979 123.208 16.2812 123.188C16.4271 123.104 16.5417 123.047 16.625 123.016C16.7083 122.984 16.7917 122.953 16.875 122.922C17.0521 122.859 17.224 122.797 17.3906 122.734C17.5573 122.661 17.7292 122.594 17.9062 122.531C17.9896 122.552 18.0573 122.542 18.1094 122.5C18.2135 122.521 18.3073 122.531 18.3906 122.531C18.5052 122.646 18.5729 122.734 18.5938 122.797C18.625 122.859 18.6667 122.917 18.7188 122.969C18.6979 123.021 18.6979 123.052 18.7188 123.062C18.75 123.073 18.7708 123.099 18.7812 123.141C18.8229 123.161 18.8281 123.193 18.7969 123.234C18.7656 123.266 18.7448 123.297 18.7344 123.328ZM26.2812 124.125C26.1771 124.135 26.1146 124.13 26.0938 124.109C26.0521 124.13 26.0104 124.151 25.9688 124.172C25.9375 124.193 25.901 124.219 25.8594 124.25C25.7135 124.302 25.5677 124.37 25.4219 124.453C25.2865 124.536 25.1458 124.615 25 124.688C24.9167 124.729 24.8333 124.766 24.75 124.797C24.6771 124.818 24.599 124.849 24.5156 124.891C24.3906 124.953 24.2656 125.021 24.1406 125.094C24.0156 125.156 23.8854 125.214 23.75 125.266C23.6771 125.286 23.6042 125.307 23.5312 125.328C23.4688 125.349 23.401 125.37 23.3281 125.391C23.2448 125.422 23.1667 125.458 23.0938 125.5C23.0312 125.531 22.9635 125.562 22.8906 125.594C22.8385 125.615 22.7812 125.635 22.7188 125.656C22.6667 125.667 22.6094 125.688 22.5469 125.719C22.4948 125.74 22.4479 125.766 22.4062 125.797C22.375 125.828 22.3333 125.854 22.2812 125.875C22.1979 125.906 22.1094 125.938 22.0156 125.969C21.9323 126 21.849 126.036 21.7656 126.078C21.6823 126.12 21.6198 126.156 21.5781 126.188C21.5469 126.229 21.4792 126.266 21.375 126.297C21.2708 126.359 21.2135 126.391 21.2031 126.391C21.1927 126.401 21.1771 126.406 21.1562 126.406C21.125 126.427 21.0938 126.443 21.0625 126.453C21.0417 126.474 21.0156 126.495 20.9844 126.516C20.9219 126.516 20.8594 126.521 20.7969 126.531C20.7344 126.542 20.6719 126.547 20.6094 126.547C20.5365 126.505 20.4844 126.464 20.4531 126.422C20.4323 126.38 20.4219 126.323 20.4219 126.25C20.3802 126.198 20.3385 126.141 20.2969 126.078C20.2656 126.016 20.2292 125.958 20.1875 125.906C20.1146 125.948 20.0677 125.948 20.0469 125.906C20.0365 125.854 20.026 125.802 20.0156 125.75C20.0052 125.688 19.9948 125.63 19.9844 125.578C19.974 125.516 19.9635 125.474 19.9531 125.453C19.901 125.255 19.875 125.109 19.875 125.016C19.875 124.964 19.8854 124.932 19.9062 124.922C19.9271 124.901 19.9375 124.875 19.9375 124.844C19.9479 124.74 19.9583 124.62 19.9688 124.484C19.9792 124.349 19.9844 124.208 19.9844 124.062C19.9844 123.917 19.9844 123.771 19.9844 123.625C19.9844 123.479 19.9844 123.349 19.9844 123.234C19.9844 122.766 19.9792 122.312 19.9688 121.875C19.9583 121.427 19.9531 120.979 19.9531 120.531C19.9531 120.323 19.9583 120.115 19.9688 119.906C19.9792 119.698 19.9844 119.49 19.9844 119.281C19.9844 118.771 19.9896 118.266 20 117.766C20.0208 117.266 20.0312 116.76 20.0312 116.25C20.0312 116.042 20.0208 115.833 20 115.625C19.9792 115.406 19.9635 115.188 19.9531 114.969C19.9427 114.854 19.9479 114.766 19.9688 114.703C19.9896 114.63 19.9948 114.557 19.9844 114.484C20.0156 114.474 20.0729 114.469 20.1562 114.469C20.2396 114.469 20.3229 114.469 20.4062 114.469C20.5 114.458 20.5833 114.453 20.6562 114.453C20.7396 114.443 20.7917 114.432 20.8125 114.422C20.8854 114.474 20.9583 114.5 21.0312 114.5C21.1042 114.5 21.1719 114.469 21.2344 114.406C21.2865 114.427 21.3125 114.443 21.3125 114.453C21.3229 114.464 21.3542 114.469 21.4062 114.469C21.5 114.458 21.5729 114.453 21.625 114.453C21.6771 114.443 21.724 114.438 21.7656 114.438C21.8802 114.521 21.9479 114.625 21.9688 114.75C22 114.865 22.0208 114.99 22.0312 115.125C22.0417 115.25 22.0469 115.38 22.0469 115.516C22.0573 115.641 22.0625 115.745 22.0625 115.828C22.0625 115.891 22.0677 115.958 22.0781 116.031C22.0885 116.094 22.0938 116.161 22.0938 116.234C22.0938 116.286 22.0885 116.339 22.0781 116.391C22.0781 116.443 22.0781 116.495 22.0781 116.547C22.0781 116.849 22.0781 117.156 22.0781 117.469C22.0885 117.781 22.0938 118.089 22.0938 118.391C22.0938 118.932 22.0833 119.479 22.0625 120.031C22.0521 120.573 22.0469 121.115 22.0469 121.656C22.0469 121.771 22.0521 121.885 22.0625 122C22.0729 122.115 22.0781 122.229 22.0781 122.344C22.0781 122.406 22.0729 122.469 22.0625 122.531C22.0625 122.594 22.0625 122.656 22.0625 122.719C22.0625 123.104 22.0781 123.49 22.1094 123.875C22.151 123.865 22.2396 123.839 22.375 123.797C22.5104 123.745 22.651 123.693 22.7969 123.641C22.9427 123.578 23.0781 123.521 23.2031 123.469C23.3281 123.406 23.4062 123.359 23.4375 123.328C23.4792 123.328 23.5365 123.312 23.6094 123.281C23.6823 123.25 23.7604 123.214 23.8438 123.172C23.9271 123.12 24.0052 123.073 24.0781 123.031C24.1615 122.99 24.2188 122.953 24.25 122.922C24.2396 122.714 24.2344 122.505 24.2344 122.297C24.2344 122.078 24.2344 121.865 24.2344 121.656C24.2344 121.083 24.2396 120.51 24.25 119.938C24.2708 119.365 24.2812 118.781 24.2812 118.188C24.2812 117.823 24.276 117.458 24.2656 117.094C24.2552 116.729 24.25 116.365 24.25 116C24.25 115.885 24.25 115.771 24.25 115.656C24.2604 115.531 24.2656 115.411 24.2656 115.297C24.2656 115.12 24.2604 114.948 24.25 114.781C24.25 114.604 24.2604 114.427 24.2812 114.25C24.3854 114.198 24.4427 114.172 24.4531 114.172C24.5156 114.172 24.5573 114.172 24.5781 114.172C24.6094 114.172 24.6354 114.182 24.6562 114.203C24.6875 114.214 24.7135 114.219 24.7344 114.219C24.7656 114.208 24.7969 114.203 24.8281 114.203C24.8802 114.203 24.9323 114.214 24.9844 114.234C25.0365 114.255 25.0885 114.266 25.1406 114.266C25.224 114.255 25.2656 114.266 25.2656 114.297C25.276 114.328 25.2969 114.344 25.3281 114.344C25.4115 114.312 25.4688 114.312 25.5 114.344C25.5312 114.365 25.5885 114.396 25.6719 114.438C25.7552 114.469 25.8438 114.505 25.9375 114.547C26.0312 114.589 26.1146 114.63 26.1875 114.672C26.2604 114.703 26.2969 114.734 26.2969 114.766C26.3281 114.932 26.3385 115.109 26.3281 115.297C26.3177 115.484 26.3125 115.661 26.3125 115.828C26.3125 115.974 26.3177 116.12 26.3281 116.266C26.3385 116.411 26.3438 116.557 26.3438 116.703C26.3438 116.786 26.3438 116.87 26.3438 116.953C26.3438 117.036 26.349 117.115 26.3594 117.188C26.3698 117.24 26.375 117.286 26.375 117.328C26.375 117.359 26.375 117.396 26.375 117.438C26.375 117.49 26.3854 117.557 26.4062 117.641C26.3958 117.693 26.3906 117.75 26.3906 117.812C26.3906 117.865 26.3906 117.917 26.3906 117.969C26.3906 118.115 26.3958 118.266 26.4062 118.422C26.4167 118.578 26.4219 118.734 26.4219 118.891C26.4219 118.995 26.4115 119.094 26.3906 119.188C26.3802 119.281 26.375 119.375 26.375 119.469L26.3906 119.766C26.3906 119.87 26.3958 119.974 26.4062 120.078C26.4167 120.182 26.4219 120.292 26.4219 120.406C26.4219 120.458 26.4167 120.51 26.4062 120.562C26.4062 120.615 26.401 120.667 26.3906 120.719C26.3802 120.771 26.375 120.828 26.375 120.891C26.375 120.953 26.375 121.01 26.375 121.062C26.375 121.208 26.3802 121.354 26.3906 121.5C26.401 121.646 26.4062 121.792 26.4062 121.938C26.4062 122.031 26.401 122.125 26.3906 122.219C26.3906 122.302 26.3906 122.391 26.3906 122.484C26.3906 122.672 26.3958 122.865 26.4062 123.062C26.4271 123.26 26.4375 123.453 26.4375 123.641C26.4375 123.724 26.4271 123.812 26.4062 123.906C26.3854 124 26.3438 124.073 26.2812 124.125ZM34.7344 114.828C34.7135 114.87 34.7031 114.911 34.7031 114.953C34.7135 114.995 34.7188 115.042 34.7188 115.094C34.6979 115.219 34.6979 115.281 34.7188 115.281C34.7396 115.281 34.75 115.292 34.75 115.312L34.6406 115.469C34.6406 115.531 34.625 115.589 34.5938 115.641C34.5729 115.693 34.5677 115.755 34.5781 115.828C34.5469 115.88 34.5156 115.932 34.4844 115.984C34.4635 116.036 34.4271 116.089 34.375 116.141H34.1719C34.0573 116.141 33.9323 116.151 33.7969 116.172C33.6719 116.182 33.5469 116.188 33.4219 116.188C33.401 116.188 33.375 116.188 33.3438 116.188C33.3125 116.177 33.2812 116.172 33.25 116.172C33.2292 116.172 33.2031 116.177 33.1719 116.188C33.1406 116.188 33.1042 116.188 33.0625 116.188C32.9062 116.188 32.75 116.182 32.5938 116.172C32.4479 116.151 32.2917 116.141 32.125 116.141C32.0833 116.141 32.0417 116.141 32 116.141C31.9583 116.141 31.9115 116.146 31.8594 116.156C31.849 116.333 31.8385 116.516 31.8281 116.703C31.8281 116.88 31.8281 117.062 31.8281 117.25C31.8281 117.302 31.8229 117.359 31.8125 117.422C31.8021 117.474 31.7969 117.526 31.7969 117.578C31.7865 117.714 31.776 117.844 31.7656 117.969C31.7656 118.094 31.7656 118.224 31.7656 118.359C31.7656 118.651 31.7656 118.943 31.7656 119.234C31.776 119.526 31.7865 119.823 31.7969 120.125C31.8073 120.281 31.8177 120.432 31.8281 120.578C31.8385 120.724 31.8438 120.875 31.8438 121.031C31.8438 121.385 31.8385 121.74 31.8281 122.094C31.8177 122.438 31.8125 122.786 31.8125 123.141C31.8125 123.255 31.8073 123.365 31.7969 123.469C31.7865 123.562 31.7812 123.667 31.7812 123.781C31.7812 124.021 31.7865 124.26 31.7969 124.5C31.8073 124.74 31.8125 124.979 31.8125 125.219C31.8125 125.333 31.8073 125.448 31.7969 125.562C31.7969 125.677 31.7969 125.792 31.7969 125.906C31.7448 125.99 31.7083 126.062 31.6875 126.125C31.6667 126.188 31.6042 126.219 31.5 126.219C31.4271 126.198 31.3906 126.172 31.3906 126.141C31.401 126.12 31.3958 126.099 31.375 126.078C31.2812 126.068 31.2083 126.073 31.1562 126.094C31.1146 126.125 31.0625 126.151 31 126.172C30.9688 126.161 30.9323 126.156 30.8906 126.156C30.8594 126.156 30.8281 126.156 30.7969 126.156C30.776 126.156 30.7552 126.161 30.7344 126.172C30.7135 126.193 30.6667 126.203 30.5938 126.203C30.5312 126.214 30.4948 126.203 30.4844 126.172C30.474 126.141 30.4427 126.125 30.3906 126.125C30.3385 126.156 30.276 126.177 30.2031 126.188C30.1406 126.208 30.0781 126.219 30.0156 126.219C29.9531 126.177 29.9219 126.135 29.9219 126.094C29.9323 126.062 29.9271 126.026 29.9062 125.984C29.8958 125.964 29.875 125.938 29.8438 125.906C29.8229 125.865 29.8021 125.833 29.7812 125.812C29.8021 125.667 29.8177 125.536 29.8281 125.422C29.8385 125.307 29.8438 125.182 29.8438 125.047C29.8438 124.776 29.8333 124.51 29.8125 124.25C29.7917 123.99 29.7812 123.724 29.7812 123.453C29.7812 123.37 29.7917 123.281 29.8125 123.188C29.8333 123.094 29.8438 122.995 29.8438 122.891C29.8229 122.807 29.8177 122.76 29.8281 122.75C29.8385 122.729 29.8438 122.708 29.8438 122.688C29.8438 122.625 29.8385 122.562 29.8281 122.5C29.8281 122.438 29.8281 122.375 29.8281 122.312C29.8281 122.188 29.8281 122.062 29.8281 121.938C29.8385 121.812 29.8438 121.688 29.8438 121.562C29.8438 121.51 29.8385 121.458 29.8281 121.406C29.8281 121.344 29.8281 121.286 29.8281 121.234C29.8177 121.141 29.8125 121.042 29.8125 120.938C29.8229 120.833 29.8281 120.729 29.8281 120.625C29.8281 120.125 29.8177 119.63 29.7969 119.141C29.7865 118.651 29.7812 118.156 29.7812 117.656C29.7812 117.406 29.7917 117.161 29.8125 116.922C29.8438 116.672 29.8594 116.422 29.8594 116.172C29.8594 116.141 29.849 116.099 29.8281 116.047C29.8073 115.995 29.7865 115.958 29.7656 115.938C29.7135 115.938 29.6615 115.938 29.6094 115.938C29.5677 115.927 29.5208 115.922 29.4688 115.922C29.3542 115.922 29.2448 115.938 29.1406 115.969C28.9427 115.979 28.75 115.995 28.5625 116.016C28.3854 116.026 28.2031 116.036 28.0156 116.047C27.8906 116.036 27.8125 116.036 27.7812 116.047C27.7604 116.047 27.7344 116.047 27.7031 116.047C27.6198 116.047 27.5573 116.026 27.5156 115.984V115.781C27.4531 115.656 27.4271 115.589 27.4375 115.578C27.4479 115.568 27.4531 115.552 27.4531 115.531C27.4531 115.5 27.4271 115.469 27.375 115.438C27.3125 115.396 27.2812 115.333 27.2812 115.25C27.2708 115.167 27.25 115.104 27.2188 115.062C27.1875 115.021 27.1719 114.979 27.1719 114.938C27.1719 114.865 27.1875 114.781 27.2188 114.688C27.3125 114.635 27.401 114.599 27.4844 114.578C27.5781 114.557 27.6823 114.531 27.7969 114.5C27.8594 114.479 27.9167 114.458 27.9688 114.438C28.0208 114.417 28.0781 114.401 28.1406 114.391C28.2135 114.38 28.2865 114.375 28.3594 114.375C28.4323 114.375 28.5052 114.37 28.5781 114.359C28.7344 114.328 28.8958 114.302 29.0625 114.281C29.2396 114.26 29.4062 114.25 29.5625 114.25C29.7083 114.25 29.8542 114.271 30 114.312C30.1458 114.344 30.276 114.359 30.3906 114.359C30.5573 114.359 30.7135 114.37 30.8594 114.391C31.0156 114.411 31.1771 114.422 31.3438 114.422C31.3646 114.422 31.3958 114.432 31.4375 114.453C31.4896 114.464 31.5469 114.469 31.6094 114.469H33.125C33.2083 114.49 33.2656 114.495 33.2969 114.484C33.3385 114.474 33.375 114.469 33.4062 114.469C33.4896 114.469 33.5677 114.474 33.6406 114.484C33.7135 114.495 33.7917 114.5 33.875 114.5C33.9479 114.5 34.0052 114.495 34.0469 114.484C34.1302 114.495 34.2083 114.521 34.2812 114.562C34.3542 114.594 34.4375 114.609 34.5312 114.609C34.5729 114.641 34.6042 114.682 34.625 114.734C34.6458 114.776 34.6823 114.807 34.7344 114.828ZM41.9219 114.828C41.901 114.87 41.8906 114.911 41.8906 114.953C41.901 114.995 41.9062 115.042 41.9062 115.094C41.8854 115.219 41.8854 115.281 41.9062 115.281C41.9271 115.281 41.9375 115.292 41.9375 115.312L41.8281 115.469C41.8281 115.531 41.8125 115.589 41.7812 115.641C41.7604 115.693 41.7552 115.755 41.7656 115.828C41.7344 115.88 41.7031 115.932 41.6719 115.984C41.651 116.036 41.6146 116.089 41.5625 116.141H41.3594C41.2448 116.141 41.1198 116.151 40.9844 116.172C40.8594 116.182 40.7344 116.188 40.6094 116.188C40.5885 116.188 40.5625 116.188 40.5312 116.188C40.5 116.177 40.4688 116.172 40.4375 116.172C40.4167 116.172 40.3906 116.177 40.3594 116.188C40.3281 116.188 40.2917 116.188 40.25 116.188C40.0938 116.188 39.9375 116.182 39.7812 116.172C39.6354 116.151 39.4792 116.141 39.3125 116.141C39.2708 116.141 39.2292 116.141 39.1875 116.141C39.1458 116.141 39.099 116.146 39.0469 116.156C39.0365 116.333 39.026 116.516 39.0156 116.703C39.0156 116.88 39.0156 117.062 39.0156 117.25C39.0156 117.302 39.0104 117.359 39 117.422C38.9896 117.474 38.9844 117.526 38.9844 117.578C38.974 117.714 38.9635 117.844 38.9531 117.969C38.9531 118.094 38.9531 118.224 38.9531 118.359C38.9531 118.651 38.9531 118.943 38.9531 119.234C38.9635 119.526 38.974 119.823 38.9844 120.125C38.9948 120.281 39.0052 120.432 39.0156 120.578C39.026 120.724 39.0312 120.875 39.0312 121.031C39.0312 121.385 39.026 121.74 39.0156 122.094C39.0052 122.438 39 122.786 39 123.141C39 123.255 38.9948 123.365 38.9844 123.469C38.974 123.562 38.9688 123.667 38.9688 123.781C38.9688 124.021 38.974 124.26 38.9844 124.5C38.9948 124.74 39 124.979 39 125.219C39 125.333 38.9948 125.448 38.9844 125.562C38.9844 125.677 38.9844 125.792 38.9844 125.906C38.9323 125.99 38.8958 126.062 38.875 126.125C38.8542 126.188 38.7917 126.219 38.6875 126.219C38.6146 126.198 38.5781 126.172 38.5781 126.141C38.5885 126.12 38.5833 126.099 38.5625 126.078C38.4688 126.068 38.3958 126.073 38.3438 126.094C38.3021 126.125 38.25 126.151 38.1875 126.172C38.1562 126.161 38.1198 126.156 38.0781 126.156C38.0469 126.156 38.0156 126.156 37.9844 126.156C37.9635 126.156 37.9427 126.161 37.9219 126.172C37.901 126.193 37.8542 126.203 37.7812 126.203C37.7188 126.214 37.6823 126.203 37.6719 126.172C37.6615 126.141 37.6302 126.125 37.5781 126.125C37.526 126.156 37.4635 126.177 37.3906 126.188C37.3281 126.208 37.2656 126.219 37.2031 126.219C37.1406 126.177 37.1094 126.135 37.1094 126.094C37.1198 126.062 37.1146 126.026 37.0938 125.984C37.0833 125.964 37.0625 125.938 37.0312 125.906C37.0104 125.865 36.9896 125.833 36.9688 125.812C36.9896 125.667 37.0052 125.536 37.0156 125.422C37.026 125.307 37.0312 125.182 37.0312 125.047C37.0312 124.776 37.0208 124.51 37 124.25C36.9792 123.99 36.9688 123.724 36.9688 123.453C36.9688 123.37 36.9792 123.281 37 123.188C37.0208 123.094 37.0312 122.995 37.0312 122.891C37.0104 122.807 37.0052 122.76 37.0156 122.75C37.026 122.729 37.0312 122.708 37.0312 122.688C37.0312 122.625 37.026 122.562 37.0156 122.5C37.0156 122.438 37.0156 122.375 37.0156 122.312C37.0156 122.188 37.0156 122.062 37.0156 121.938C37.026 121.812 37.0312 121.688 37.0312 121.562C37.0312 121.51 37.026 121.458 37.0156 121.406C37.0156 121.344 37.0156 121.286 37.0156 121.234C37.0052 121.141 37 121.042 37 120.938C37.0104 120.833 37.0156 120.729 37.0156 120.625C37.0156 120.125 37.0052 119.63 36.9844 119.141C36.974 118.651 36.9688 118.156 36.9688 117.656C36.9688 117.406 36.9792 117.161 37 116.922C37.0312 116.672 37.0469 116.422 37.0469 116.172C37.0469 116.141 37.0365 116.099 37.0156 116.047C36.9948 115.995 36.974 115.958 36.9531 115.938C36.901 115.938 36.849 115.938 36.7969 115.938C36.7552 115.927 36.7083 115.922 36.6562 115.922C36.5417 115.922 36.4323 115.938 36.3281 115.969C36.1302 115.979 35.9375 115.995 35.75 116.016C35.5729 116.026 35.3906 116.036 35.2031 116.047C35.0781 116.036 35 116.036 34.9688 116.047C34.9479 116.047 34.9219 116.047 34.8906 116.047C34.8073 116.047 34.7448 116.026 34.7031 115.984V115.781C34.6406 115.656 34.6146 115.589 34.625 115.578C34.6354 115.568 34.6406 115.552 34.6406 115.531C34.6406 115.5 34.6146 115.469 34.5625 115.438C34.5 115.396 34.4688 115.333 34.4688 115.25C34.4583 115.167 34.4375 115.104 34.4062 115.062C34.375 115.021 34.3594 114.979 34.3594 114.938C34.3594 114.865 34.375 114.781 34.4062 114.688C34.5 114.635 34.5885 114.599 34.6719 114.578C34.7656 114.557 34.8698 114.531 34.9844 114.5C35.0469 114.479 35.1042 114.458 35.1562 114.438C35.2083 114.417 35.2656 114.401 35.3281 114.391C35.401 114.38 35.474 114.375 35.5469 114.375C35.6198 114.375 35.6927 114.37 35.7656 114.359C35.9219 114.328 36.0833 114.302 36.25 114.281C36.4271 114.26 36.5938 114.25 36.75 114.25C36.8958 114.25 37.0417 114.271 37.1875 114.312C37.3333 114.344 37.4635 114.359 37.5781 114.359C37.7448 114.359 37.901 114.37 38.0469 114.391C38.2031 114.411 38.3646 114.422 38.5312 114.422C38.5521 114.422 38.5833 114.432 38.625 114.453C38.6771 114.464 38.7344 114.469 38.7969 114.469H40.3125C40.3958 114.49 40.4531 114.495 40.4844 114.484C40.526 114.474 40.5625 114.469 40.5938 114.469C40.6771 114.469 40.7552 114.474 40.8281 114.484C40.901 114.495 40.9792 114.5 41.0625 114.5C41.1354 114.5 41.1927 114.495 41.2344 114.484C41.3177 114.495 41.3958 114.521 41.4688 114.562C41.5417 114.594 41.625 114.609 41.7188 114.609C41.7604 114.641 41.7917 114.682 41.8125 114.734C41.8333 114.776 41.8698 114.807 41.9219 114.828ZM45.0312 121.906C45.0521 121.958 45.125 122.068 45.25 122.234C45.3854 122.401 45.5365 122.583 45.7031 122.781C45.8698 122.979 46.026 123.172 46.1719 123.359C46.3281 123.536 46.4375 123.667 46.5 123.75C46.6146 123.896 46.724 124.042 46.8281 124.188C46.9427 124.323 47.0469 124.469 47.1406 124.625L47.4219 125.094C47.5052 125.198 47.5781 125.286 47.6406 125.359C47.7135 125.432 47.7708 125.531 47.8125 125.656C47.8333 125.74 47.8438 125.797 47.8438 125.828C47.8438 125.901 47.8177 125.953 47.7656 125.984C47.6823 125.984 47.6354 125.995 47.625 126.016C47.625 126.047 47.6042 126.073 47.5625 126.094C47.5208 126.115 47.4531 126.125 47.3594 126.125C47.276 126.135 47.2083 126.141 47.1562 126.141C47.0625 126.141 46.9427 126.135 46.7969 126.125C46.6615 126.125 46.5521 126.141 46.4688 126.172C46.4479 126.182 46.4167 126.198 46.375 126.219C46.3333 126.24 46.3021 126.25 46.2812 126.25C46.1979 126.25 46.1354 126.234 46.0938 126.203C46.0625 126.182 46.0156 126.167 45.9531 126.156C45.8698 126.062 45.7969 125.969 45.7344 125.875C45.6823 125.771 45.6198 125.667 45.5469 125.562C45.474 125.49 45.401 125.427 45.3281 125.375C45.2552 125.312 45.1927 125.245 45.1406 125.172C44.9844 124.943 44.8229 124.719 44.6562 124.5C44.4896 124.281 44.3177 124.068 44.1406 123.859C44.0573 123.745 43.9688 123.641 43.875 123.547C43.7812 123.453 43.6927 123.349 43.6094 123.234C43.526 123.13 43.4479 123.021 43.375 122.906C43.3021 122.781 43.2292 122.661 43.1562 122.547C43.0938 122.453 43.0104 122.333 42.9062 122.188C42.8021 122.031 42.6875 121.88 42.5625 121.734C42.4375 121.578 42.3125 121.432 42.1875 121.297C42.0625 121.161 41.9583 121.057 41.875 120.984C41.8646 120.922 41.8385 120.875 41.7969 120.844C41.7552 120.802 41.7083 120.766 41.6562 120.734C41.6354 120.682 41.6146 120.635 41.5938 120.594C41.5625 120.542 41.5469 120.49 41.5469 120.438C41.5469 120.365 41.5625 120.297 41.5938 120.234C41.6146 120.193 41.6302 120.156 41.6406 120.125C41.6406 120.083 41.651 120.042 41.6719 120C41.724 119.885 41.7917 119.776 41.875 119.672C41.9688 119.557 42.0417 119.438 42.0938 119.312C42.1146 119.281 42.125 119.25 42.125 119.219C42.125 119.177 42.1354 119.141 42.1562 119.109C42.1771 119.026 42.2188 118.958 42.2812 118.906C42.3542 118.844 42.4115 118.776 42.4531 118.703C42.5052 118.62 42.5521 118.536 42.5938 118.453C42.6458 118.359 42.6979 118.26 42.75 118.156C42.9062 117.896 43.0677 117.646 43.2344 117.406C43.4115 117.156 43.5885 116.906 43.7656 116.656C43.901 116.448 44.0312 116.25 44.1562 116.062C44.2917 115.865 44.4271 115.667 44.5625 115.469C44.6354 115.375 44.7135 115.266 44.7969 115.141C44.8802 115.016 44.9688 114.891 45.0625 114.766C45.1667 114.641 45.2708 114.526 45.375 114.422C45.4792 114.318 45.5833 114.234 45.6875 114.172C45.8438 114.161 45.9479 114.198 46 114.281C46.0521 114.354 46.1302 114.391 46.2344 114.391C46.3698 114.422 46.4583 114.464 46.5 114.516C46.5417 114.568 46.5885 114.62 46.6406 114.672C46.7865 114.672 46.901 114.698 46.9844 114.75C47.0781 114.802 47.1667 114.88 47.25 114.984C47.2188 115.099 47.1719 115.203 47.1094 115.297C47.0469 115.38 46.9896 115.469 46.9375 115.562C46.8542 115.604 46.7917 115.661 46.75 115.734C46.7188 115.807 46.6667 115.865 46.5938 115.906C46.4896 116.083 46.3802 116.255 46.2656 116.422C46.151 116.578 46.0365 116.734 45.9219 116.891C45.8594 116.984 45.7917 117.068 45.7188 117.141C45.6562 117.214 45.599 117.292 45.5469 117.375C45.526 117.406 45.5052 117.443 45.4844 117.484C45.474 117.516 45.4583 117.547 45.4375 117.578C45.3125 117.776 45.1771 117.964 45.0312 118.141C44.8854 118.307 44.75 118.495 44.625 118.703C44.5833 118.776 44.5469 118.854 44.5156 118.938C44.4948 119.01 44.4635 119.083 44.4219 119.156C44.3802 119.219 44.3177 119.302 44.2344 119.406C44.1615 119.51 44.0885 119.625 44.0156 119.75C43.9427 119.865 43.875 119.979 43.8125 120.094C43.7604 120.198 43.7344 120.286 43.7344 120.359C43.7448 120.411 43.8073 120.516 43.9219 120.672C44.0469 120.818 44.1823 120.979 44.3281 121.156C44.4844 121.323 44.6302 121.484 44.7656 121.641C44.901 121.786 44.9896 121.875 45.0312 121.906ZM46.0625 119.062C46.1354 119.219 46.2135 119.354 46.2969 119.469C46.3281 119.51 46.3646 119.547 46.4062 119.578C46.4479 119.609 46.4792 119.651 46.5 119.703C46.5208 119.724 46.5417 119.771 46.5625 119.844C46.5833 119.906 46.6042 119.953 46.625 119.984C46.6562 120.068 46.7188 120.161 46.8125 120.266C46.9062 120.37 46.9531 120.464 46.9531 120.547C46.9531 120.599 46.9427 120.656 46.9219 120.719C46.901 120.781 46.8854 120.839 46.875 120.891C46.8646 120.953 46.8594 121.021 46.8594 121.094C46.8594 121.156 46.8385 121.214 46.7969 121.266C46.7448 121.318 46.6875 121.349 46.625 121.359C46.5625 121.37 46.5052 121.396 46.4531 121.438C46.4323 121.458 46.401 121.495 46.3594 121.547C46.3177 121.599 46.276 121.656 46.2344 121.719C46.1927 121.781 46.151 121.844 46.1094 121.906C46.0781 121.958 46.0625 122 46.0625 122.031C45.9375 122.042 45.8542 122.047 45.8125 122.047C45.7812 122.036 45.7448 122.036 45.7031 122.047C45.651 121.995 45.5938 121.953 45.5312 121.922C45.4792 121.88 45.4115 121.844 45.3281 121.812C45.3073 121.729 45.2604 121.635 45.1875 121.531C45.1146 121.417 45.0521 121.323 45 121.25L44.8906 121.109C44.7344 120.891 44.5885 120.682 44.4531 120.484C44.3281 120.276 44.2344 120.047 44.1719 119.797C44.3698 119.651 44.5208 119.542 44.625 119.469C44.7396 119.396 44.8594 119.328 44.9844 119.266C45.1094 119.203 45.2292 119.146 45.3438 119.094C45.4688 119.031 45.5833 118.958 45.6875 118.875C45.7708 118.875 45.8281 118.88 45.8594 118.891C45.8906 118.901 45.9115 118.911 45.9219 118.922C45.9323 118.932 45.9427 118.953 45.9531 118.984C45.974 119.005 46.0104 119.031 46.0625 119.062ZM55.75 124.5C55.7396 124.656 55.7708 124.776 55.8438 124.859C55.9271 124.932 55.9948 125.026 56.0469 125.141C56.026 125.286 56.0417 125.401 56.0938 125.484C56.0625 125.547 56.0312 125.62 56 125.703C55.9688 125.776 55.9219 125.839 55.8594 125.891C55.6927 125.964 55.5938 126.026 55.5625 126.078C55.5312 126.13 55.4688 126.156 55.375 126.156C55.3229 126.208 55.2656 126.26 55.2031 126.312C55.1406 126.375 55.0833 126.432 55.0312 126.484C54.9792 126.464 54.9427 126.438 54.9219 126.406C54.901 126.375 54.8698 126.333 54.8281 126.281C54.724 126.25 54.6302 126.193 54.5469 126.109C54.4635 126.036 54.3906 125.953 54.3281 125.859C54.2656 125.755 54.2031 125.651 54.1406 125.547C54.0885 125.432 54.0417 125.328 54 125.234C53.8542 124.964 53.7031 124.693 53.5469 124.422C53.401 124.141 53.25 123.865 53.0938 123.594C53.0104 123.458 52.9271 123.323 52.8438 123.188C52.7708 123.042 52.6927 122.896 52.6094 122.75C52.5885 122.729 52.5677 122.708 52.5469 122.688C52.526 122.656 52.5052 122.625 52.4844 122.594C52.4115 122.49 52.3542 122.375 52.3125 122.25C52.2812 122.115 52.2083 122.005 52.0938 121.922C51.8958 121.901 51.7135 121.932 51.5469 122.016C51.3906 122.089 51.25 122.188 51.125 122.312C51.1354 122.385 51.1406 122.453 51.1406 122.516C51.1406 122.578 51.1406 122.641 51.1406 122.703C51.1406 122.943 51.1302 123.172 51.1094 123.391C51.0885 123.609 51.0781 123.839 51.0781 124.078C51.0781 124.182 51.0833 124.292 51.0938 124.406C51.1042 124.51 51.1198 124.615 51.1406 124.719C51.1094 124.833 51.0938 124.958 51.0938 125.094C51.0938 125.167 51.099 125.234 51.1094 125.297C51.1302 125.359 51.1406 125.427 51.1406 125.5C51.1406 125.604 51.1042 125.677 51.0312 125.719C50.9688 125.75 50.9479 125.812 50.9688 125.906C50.8438 125.958 50.724 126.01 50.6094 126.062C50.4948 126.115 50.375 126.151 50.25 126.172C50.1979 126.182 50.1458 126.182 50.0938 126.172C50.0417 126.172 49.9948 126.182 49.9531 126.203C49.901 126.224 49.8594 126.26 49.8281 126.312C49.7969 126.375 49.7552 126.406 49.7031 126.406C49.6406 126.406 49.6042 126.38 49.5938 126.328C49.5833 126.286 49.5625 126.25 49.5312 126.219C49.4792 126.198 49.4375 126.188 49.4062 126.188C49.375 126.188 49.3438 126.172 49.3125 126.141C49.3229 126.047 49.3021 125.979 49.25 125.938C49.1979 125.885 49.1719 125.786 49.1719 125.641C49.1719 125.526 49.1771 125.417 49.1875 125.312C49.2083 125.208 49.2188 125.099 49.2188 124.984C49.2188 124.891 49.2031 124.807 49.1719 124.734C49.151 124.651 49.1302 124.562 49.1094 124.469C49.099 124.427 49.099 124.385 49.1094 124.344C49.1198 124.302 49.125 124.26 49.125 124.219C49.125 124.031 49.1146 123.844 49.0938 123.656C49.0833 123.458 49.0781 123.266 49.0781 123.078C49.0781 123.005 49.0781 122.938 49.0781 122.875C49.0781 122.812 49.0833 122.75 49.0938 122.688C49.1146 122.625 49.1302 122.573 49.1406 122.531C49.1615 122.49 49.1719 122.438 49.1719 122.375C49.1719 122.177 49.151 121.984 49.1094 121.797C49.0677 121.599 49.0469 121.406 49.0469 121.219C49.0469 121.115 49.0469 121.01 49.0469 120.906C49.0573 120.792 49.0625 120.682 49.0625 120.578C49.0625 120.276 49.0573 119.979 49.0469 119.688C49.0365 119.396 49.0312 119.104 49.0312 118.812C49.0312 118.604 49.0365 118.401 49.0469 118.203C49.0573 117.995 49.0625 117.786 49.0625 117.578C49.0625 117.318 49.0521 117.062 49.0312 116.812C49.0104 116.552 49 116.286 49 116.016C49 115.922 48.9948 115.859 48.9844 115.828C48.974 115.797 48.9583 115.781 48.9375 115.781C48.9167 115.771 48.8906 115.766 48.8594 115.766C48.8385 115.755 48.8177 115.734 48.7969 115.703C48.7969 115.641 48.8229 115.599 48.875 115.578C48.9271 115.547 48.9531 115.458 48.9531 115.312C48.9531 115.229 48.9427 115.146 48.9219 115.062C48.9115 114.979 48.9062 114.896 48.9062 114.812C48.9062 114.688 48.9323 114.562 48.9844 114.438C49.0365 114.312 49.0833 114.193 49.125 114.078C49.25 114.068 49.3333 114.068 49.375 114.078C49.4271 114.089 49.4792 114.083 49.5312 114.062C49.5625 114.177 49.6302 114.24 49.7344 114.25C49.8385 114.25 49.9323 114.26 50.0156 114.281C50.1094 114.292 50.1979 114.318 50.2812 114.359C50.375 114.391 50.4635 114.406 50.5469 114.406C50.5677 114.469 50.6094 114.516 50.6719 114.547C50.7448 114.568 50.8177 114.589 50.8906 114.609C50.974 114.599 51.0365 114.562 51.0781 114.5C51.1302 114.438 51.1979 114.406 51.2812 114.406C51.3438 114.406 51.4167 114.453 51.5 114.547C51.5833 114.63 51.6458 114.698 51.6875 114.75C51.7292 114.781 51.8073 114.849 51.9219 114.953C52.0365 115.057 52.1615 115.167 52.2969 115.281C52.4323 115.385 52.5573 115.49 52.6719 115.594C52.7865 115.688 52.8594 115.74 52.8906 115.75C53.3177 116.177 53.7135 116.568 54.0781 116.922C54.4531 117.266 54.8594 117.578 55.2969 117.859C55.3073 117.891 55.3177 117.917 55.3281 117.938C55.349 117.958 55.3698 117.984 55.3906 118.016C55.3906 118.099 55.375 118.161 55.3438 118.203C55.3125 118.245 55.2969 118.297 55.2969 118.359C55.2969 118.391 55.3021 118.422 55.3125 118.453C55.3333 118.484 55.3438 118.516 55.3438 118.547C55.3542 118.589 55.3542 118.63 55.3438 118.672C55.3438 118.703 55.3438 118.74 55.3438 118.781C55.3438 118.885 55.375 118.979 55.4375 119.062C55.5104 119.146 55.5469 119.24 55.5469 119.344C55.526 119.438 55.4844 119.495 55.4219 119.516C55.3594 119.536 55.3073 119.562 55.2656 119.594C55.2448 119.615 55.224 119.641 55.2031 119.672C55.1927 119.703 55.1771 119.729 55.1562 119.75C54.9271 119.854 54.7604 119.953 54.6562 120.047C54.5521 120.13 54.4427 120.214 54.3281 120.297C54.2969 120.318 54.2448 120.354 54.1719 120.406C54.099 120.448 54.026 120.495 53.9531 120.547C53.8802 120.589 53.8125 120.635 53.75 120.688C53.6979 120.74 53.6719 120.781 53.6719 120.812C53.6719 120.885 53.7135 120.99 53.7969 121.125C53.8906 121.25 53.9583 121.349 54 121.422C54.1146 121.609 54.2188 121.797 54.3125 121.984C54.4062 122.161 54.5104 122.339 54.625 122.516C54.8333 122.839 55.026 123.167 55.2031 123.5C55.3906 123.833 55.5729 124.167 55.75 124.5ZM53.2031 118.688C52.9635 118.385 52.7031 118.115 52.4219 117.875C52.151 117.625 51.8906 117.365 51.6406 117.094L51.4688 117.062C51.4062 116.958 51.3333 116.87 51.25 116.797C51.1771 116.714 51.099 116.63 51.0156 116.547C51.026 116.661 51.0312 116.771 51.0312 116.875C51.0312 116.979 51.0312 117.089 51.0312 117.203C51.0312 117.536 51.0208 117.865 51 118.188C50.9896 118.5 50.9844 118.818 50.9844 119.141C50.9844 119.464 51 119.771 51.0312 120.062C51.25 120.062 51.4479 120 51.625 119.875C51.6979 119.823 51.7656 119.771 51.8281 119.719C51.8906 119.656 51.9583 119.599 52.0312 119.547C52.1146 119.495 52.2083 119.432 52.3125 119.359C52.4271 119.286 52.5365 119.214 52.6406 119.141C52.7552 119.068 52.8594 118.995 52.9531 118.922C53.0573 118.839 53.1406 118.76 53.2031 118.688Z" fill="#055799"/>
<path d="M67.9844 113.984C68.0677 113.984 68.125 114.005 68.1562 114.047C68.1979 114.078 68.2292 114.12 68.25 114.172C68.3542 114.161 68.4583 114.182 68.5625 114.234C68.6771 114.276 68.7448 114.318 68.7656 114.359C68.849 114.37 68.901 114.391 68.9219 114.422C68.9427 114.453 68.974 114.474 69.0156 114.484L69.1875 114.469C69.2292 114.51 69.3073 114.552 69.4219 114.594C69.5469 114.635 69.6198 114.682 69.6406 114.734C69.6198 114.786 69.6094 114.844 69.6094 114.906C69.6198 114.958 69.625 115.021 69.625 115.094C69.5938 115.25 69.5417 115.391 69.4688 115.516C69.4062 115.641 69.349 115.76 69.2969 115.875C69.2656 115.927 69.2396 115.984 69.2188 116.047C69.2083 116.109 69.1927 116.167 69.1719 116.219C69.151 116.26 69.1302 116.302 69.1094 116.344C69.099 116.375 69.0833 116.411 69.0625 116.453C69.0625 116.505 69.0521 116.562 69.0312 116.625C69.0104 116.677 68.9896 116.729 68.9688 116.781C68.9688 116.844 68.9635 116.891 68.9531 116.922C68.9427 116.943 68.9375 116.964 68.9375 116.984C68.7396 117.464 68.5833 117.911 68.4688 118.328C68.3542 118.745 68.2396 119.161 68.125 119.578C68.0729 119.703 68.0208 119.859 67.9688 120.047C67.9167 120.234 67.849 120.458 67.7656 120.719C67.6927 120.969 67.6094 121.24 67.5156 121.531C67.4323 121.812 67.349 122.078 67.2656 122.328C67.1927 122.568 67.125 122.776 67.0625 122.953C67.0104 123.12 66.9792 123.214 66.9688 123.234C66.9375 123.411 66.8906 123.594 66.8281 123.781C66.7656 123.958 66.7135 124.146 66.6719 124.344C66.6198 124.406 66.5885 124.479 66.5781 124.562C66.5677 124.635 66.5417 124.708 66.5 124.781C66.4167 124.771 66.349 124.792 66.2969 124.844C66.2865 124.927 66.2917 125.005 66.3125 125.078C66.3438 125.151 66.3594 125.229 66.3594 125.312C66.3177 125.427 66.2656 125.5 66.2031 125.531C66.1406 125.562 66.099 125.615 66.0781 125.688C66.0052 125.667 65.9479 125.677 65.9062 125.719C65.875 125.76 65.8385 125.781 65.7969 125.781C65.6719 125.75 65.599 125.771 65.5781 125.844C65.5156 125.823 65.474 125.833 65.4531 125.875C65.4323 125.906 65.4115 125.927 65.3906 125.938C65.3073 125.938 65.2396 125.958 65.1875 126C65.1458 126.031 65.0938 126.052 65.0312 126.062C64.9896 126.042 64.9479 126.021 64.9062 126C64.8646 125.969 64.8281 125.938 64.7969 125.906C64.7344 125.729 64.6771 125.557 64.625 125.391C64.5729 125.214 64.5208 125.036 64.4688 124.859C64.4479 124.776 64.4219 124.698 64.3906 124.625C64.3594 124.552 64.3333 124.474 64.3125 124.391C64.3021 124.339 64.2969 124.297 64.2969 124.266C64.2969 124.224 64.2917 124.182 64.2812 124.141C64.2604 124.089 64.2396 124.036 64.2188 123.984C64.1979 123.932 64.1771 123.88 64.1562 123.828C64.0729 123.599 64.0104 123.365 63.9688 123.125C63.9167 122.948 63.8646 122.776 63.8125 122.609C63.7708 122.432 63.7292 122.255 63.6875 122.078C63.6562 121.932 63.6198 121.781 63.5781 121.625C63.5365 121.458 63.4844 121.312 63.4219 121.188C63.401 121.021 63.3542 120.865 63.2812 120.719C63.2188 120.562 63.1875 120.406 63.1875 120.25C63.1354 120.083 63.0885 119.917 63.0469 119.75C63.0156 119.583 62.974 119.417 62.9219 119.25C62.901 119.167 62.875 119.089 62.8438 119.016C62.8125 118.943 62.7865 118.87 62.7656 118.797C62.7344 118.703 62.7083 118.604 62.6875 118.5C62.6667 118.396 62.6458 118.292 62.625 118.188C62.5938 118.094 62.5625 118.005 62.5312 117.922C62.5 117.828 62.4688 117.734 62.4375 117.641C62.3854 117.464 62.3333 117.292 62.2812 117.125C62.2396 116.948 62.1927 116.771 62.1406 116.594C62.0885 116.396 62.0365 116.203 61.9844 116.016C61.9427 115.818 61.8646 115.63 61.75 115.453C61.7188 115.401 61.6927 115.344 61.6719 115.281C61.6615 115.208 61.6406 115.141 61.6094 115.078C61.6302 114.995 61.6354 114.901 61.625 114.797C61.6146 114.682 61.6302 114.594 61.6719 114.531C61.776 114.531 61.901 114.531 62.0469 114.531C62.1927 114.521 62.3021 114.526 62.375 114.547C62.4167 114.536 62.4479 114.521 62.4688 114.5C62.5 114.479 62.5365 114.464 62.5781 114.453C62.6406 114.484 62.7031 114.5 62.7656 114.5C62.8594 114.5 62.9323 114.479 62.9844 114.438C63.099 114.49 63.1615 114.5 63.1719 114.469C63.1823 114.438 63.2083 114.422 63.25 114.422C63.3125 114.443 63.3594 114.49 63.3906 114.562C63.4219 114.625 63.4531 114.682 63.4844 114.734C63.599 114.943 63.6823 115.151 63.7344 115.359C63.7969 115.557 63.8594 115.771 63.9219 116C63.9948 116.208 64.0625 116.417 64.125 116.625C64.1875 116.823 64.2448 117.026 64.2969 117.234C64.3281 117.339 64.3542 117.443 64.375 117.547C64.3958 117.651 64.4167 117.755 64.4375 117.859C64.4688 117.974 64.5052 118.083 64.5469 118.188C64.5885 118.281 64.6302 118.385 64.6719 118.5C64.6927 118.615 64.7135 118.729 64.7344 118.844C64.7552 118.948 64.7812 119.057 64.8125 119.172C64.8333 119.255 64.8594 119.333 64.8906 119.406C64.9219 119.479 64.9479 119.557 64.9688 119.641C64.9896 119.724 65.0104 119.812 65.0312 119.906C65.0521 119.99 65.0729 120.073 65.0938 120.156C65.1458 120.365 65.2031 120.573 65.2656 120.781C65.3281 120.979 65.3854 121.182 65.4375 121.391C65.4896 121.359 65.5208 121.302 65.5312 121.219C65.5417 121.135 65.5625 121.068 65.5938 121.016C65.6146 120.891 65.6458 120.755 65.6875 120.609C65.7396 120.464 65.7865 120.328 65.8281 120.203C65.8385 120.151 65.849 120.104 65.8594 120.062C65.8802 120.021 65.901 119.974 65.9219 119.922C65.9531 119.859 65.974 119.797 65.9844 119.734C65.9948 119.661 66.0104 119.589 66.0312 119.516C66.0729 119.37 66.1146 119.224 66.1562 119.078C66.2083 118.932 66.2552 118.786 66.2969 118.641C66.3385 118.505 66.375 118.365 66.4062 118.219C66.4375 118.073 66.4792 117.938 66.5312 117.812C66.5833 117.698 66.625 117.589 66.6562 117.484C66.6979 117.38 66.7344 117.271 66.7656 117.156C66.7969 117.042 66.8229 116.927 66.8438 116.812C66.8646 116.698 66.901 116.594 66.9531 116.5C66.974 116.448 66.9948 116.391 67.0156 116.328C67.0469 116.255 67.0729 116.188 67.0938 116.125C67.1458 115.958 67.1927 115.792 67.2344 115.625C67.276 115.458 67.3333 115.292 67.4062 115.125C67.4583 114.979 67.5208 114.839 67.5938 114.703C67.6667 114.568 67.7292 114.427 67.7812 114.281C67.8229 114.177 67.8594 114.109 67.8906 114.078C67.9219 114.047 67.9531 114.016 67.9844 113.984ZM73.0625 115.375C73.0625 115.469 73.0312 115.542 72.9688 115.594C72.9062 115.635 72.849 115.693 72.7969 115.766C72.6927 115.859 72.599 115.958 72.5156 116.062C72.4427 116.156 72.3542 116.25 72.25 116.344C72.2083 116.385 72.151 116.443 72.0781 116.516C72.0052 116.578 71.9271 116.646 71.8438 116.719C71.7708 116.781 71.6927 116.839 71.6094 116.891C71.5365 116.943 71.474 116.969 71.4219 116.969C71.3385 116.969 71.2292 116.943 71.0938 116.891C70.9688 116.828 70.8594 116.786 70.7656 116.766C70.6927 116.755 70.625 116.75 70.5625 116.75C70.5104 116.74 70.4583 116.708 70.4062 116.656C70.2188 116.615 70.099 116.552 70.0469 116.469C69.9948 116.375 69.9375 116.281 69.875 116.188C69.875 116.146 69.8906 116.12 69.9219 116.109C69.9531 116.099 69.9792 116.078 70 116.047C70.1042 115.911 70.1927 115.802 70.2656 115.719C70.3385 115.625 70.4219 115.531 70.5156 115.438C70.6927 115.281 70.8594 115.12 71.0156 114.953C71.1823 114.786 71.3542 114.63 71.5312 114.484C71.6146 114.474 71.6771 114.443 71.7188 114.391C71.7604 114.339 71.8229 114.312 71.9062 114.312C71.9896 114.312 72.0573 114.339 72.1094 114.391C72.1719 114.443 72.224 114.505 72.2656 114.578C72.3177 114.641 72.3646 114.708 72.4062 114.781C72.4583 114.844 72.5156 114.891 72.5781 114.922C72.651 114.974 72.75 115.042 72.875 115.125C73 115.208 73.0625 115.292 73.0625 115.375ZM70.9219 118.281C70.9948 118.323 71.0469 118.38 71.0781 118.453C71.1198 118.516 71.1771 118.562 71.25 118.594C71.3125 118.625 71.3802 118.641 71.4531 118.641C71.526 118.641 71.5885 118.651 71.6406 118.672C71.6823 118.693 71.7135 118.719 71.7344 118.75C71.7552 118.781 71.776 118.812 71.7969 118.844C71.8594 118.896 71.9531 118.943 72.0781 118.984C72.2135 119.026 72.3021 119.073 72.3438 119.125C72.4167 119.219 72.4688 119.339 72.5 119.484C72.5417 119.63 72.5729 119.786 72.5938 119.953C72.6146 120.109 72.6302 120.271 72.6406 120.438C72.651 120.594 72.6667 120.729 72.6875 120.844C72.7083 121.083 72.7344 121.323 72.7656 121.562C72.7969 121.792 72.8125 122.026 72.8125 122.266C72.8125 122.505 72.8021 122.75 72.7812 123C72.7604 123.25 72.75 123.495 72.75 123.734C72.75 123.859 72.7448 124.016 72.7344 124.203C72.7344 124.391 72.6927 124.536 72.6094 124.641C72.599 124.682 72.5938 124.755 72.5938 124.859V125.359C72.5938 125.422 72.599 125.484 72.6094 125.547C72.6198 125.609 72.625 125.677 72.625 125.75C72.625 125.865 72.5938 125.948 72.5312 126C72.5 125.99 72.4635 125.984 72.4219 125.984C72.3906 125.984 72.3594 125.984 72.3281 125.984C72.2135 125.984 72.1302 126.005 72.0781 126.047C71.9635 126.036 71.8542 126.026 71.75 126.016C71.6458 126.005 71.5365 126 71.4219 126C71.2448 126 71.0521 126.026 70.8438 126.078C70.8021 125.974 70.7812 125.865 70.7812 125.75C70.7917 125.635 70.7708 125.531 70.7188 125.438C70.7083 125.406 70.6979 125.38 70.6875 125.359C70.6875 125.328 70.6875 125.297 70.6875 125.266C70.7188 125.141 70.7344 125.057 70.7344 125.016C70.7344 124.964 70.7344 124.911 70.7344 124.859C70.7344 124.714 70.7292 124.568 70.7188 124.422C70.7083 124.266 70.7135 124.115 70.7344 123.969C70.7344 123.917 70.7396 123.87 70.75 123.828C70.7708 123.786 70.7812 123.74 70.7812 123.688C70.7812 123.635 70.7708 123.599 70.75 123.578C70.7292 123.557 70.7188 123.531 70.7188 123.5C70.7188 123.469 70.7188 123.417 70.7188 123.344C70.7292 123.271 70.7448 123.224 70.7656 123.203C70.7656 123.12 70.7656 123.042 70.7656 122.969C70.776 122.885 70.7812 122.807 70.7812 122.734C70.7812 122.568 70.776 122.401 70.7656 122.234C70.7552 122.068 70.75 121.906 70.75 121.75C70.75 121.677 70.7448 121.63 70.7344 121.609C70.724 121.589 70.7135 121.573 70.7031 121.562C70.6927 121.552 70.6771 121.547 70.6562 121.547C70.6354 121.536 70.6198 121.516 70.6094 121.484C70.651 121.026 70.6354 120.568 70.5625 120.109C70.4896 119.651 70.4531 119.188 70.4531 118.719C70.4531 118.646 70.4635 118.594 70.4844 118.562C70.5052 118.521 70.5312 118.49 70.5625 118.469C70.5938 118.448 70.6198 118.427 70.6406 118.406C70.6719 118.375 70.6927 118.333 70.7031 118.281C70.7865 118.302 70.8594 118.302 70.9219 118.281ZM81.2031 126.031C81.151 126.156 81.0417 126.26 80.875 126.344C80.8021 126.302 80.7344 126.25 80.6719 126.188C80.6198 126.135 80.5521 126.094 80.4688 126.062C80.4062 125.938 80.3594 125.865 80.3281 125.844C80.2969 125.812 80.2604 125.792 80.2188 125.781C80.1562 125.729 80.1042 125.667 80.0625 125.594C80.0208 125.521 79.974 125.458 79.9219 125.406C79.901 125.396 79.8594 125.365 79.7969 125.312C79.7448 125.25 79.6875 125.188 79.625 125.125C79.5625 125.062 79.5052 125.005 79.4531 124.953C79.401 124.891 79.3698 124.859 79.3594 124.859C79.2656 124.797 79.1823 124.729 79.1094 124.656C79.0885 124.625 79.0625 124.594 79.0312 124.562C79.0104 124.521 78.9896 124.49 78.9688 124.469C78.8854 124.438 78.8177 124.396 78.7656 124.344C78.7135 124.281 78.6615 124.214 78.6094 124.141C78.5677 124.068 78.5156 124.005 78.4531 123.953C78.401 123.891 78.3385 123.844 78.2656 123.812C78.1927 123.708 78.1042 123.625 78 123.562C77.8958 123.49 77.8073 123.406 77.7344 123.312C77.6719 123.24 77.6042 123.172 77.5312 123.109C77.4583 123.036 77.3802 122.969 77.2969 122.906C77.2552 122.844 77.1875 122.755 77.0938 122.641C77 122.516 76.9167 122.448 76.8438 122.438C76.8333 122.677 76.8229 122.917 76.8125 123.156C76.8125 123.396 76.8073 123.635 76.7969 123.875C76.7969 124 76.7969 124.13 76.7969 124.266C76.8073 124.401 76.8073 124.536 76.7969 124.672C76.7865 124.724 76.7708 124.781 76.75 124.844C76.7396 124.896 76.7344 124.953 76.7344 125.016C76.7344 125.141 76.724 125.224 76.7031 125.266C76.6927 125.297 76.6823 125.328 76.6719 125.359C76.6406 125.464 76.6094 125.594 76.5781 125.75C76.5573 125.896 76.5052 126.01 76.4219 126.094C76.3073 126.104 76.2188 126.094 76.1562 126.062C76.1354 126.083 76.1146 126.104 76.0938 126.125C76.0729 126.146 76.0417 126.156 76 126.156C75.9792 126.135 75.9427 126.115 75.8906 126.094C75.849 126.083 75.8177 126.078 75.7969 126.078C75.7448 126.078 75.6875 126.089 75.625 126.109C75.5729 126.13 75.5208 126.141 75.4688 126.141C75.4167 126.141 75.3698 126.125 75.3281 126.094C75.2969 126.073 75.2552 126.062 75.2031 126.062C75.1719 126.062 75.1354 126.078 75.0938 126.109C75.0521 126.141 75.0104 126.156 74.9688 126.156C74.9167 126.156 74.8698 126.146 74.8281 126.125C74.7969 126.115 74.7604 126.104 74.7188 126.094C74.7188 126.062 74.7188 126.031 74.7188 126C74.7292 125.969 74.7292 125.938 74.7188 125.906L74.6562 125.516C74.6667 125.443 74.6771 125.37 74.6875 125.297C74.7083 125.224 74.724 125.156 74.7344 125.094C74.7448 124.927 74.75 124.771 74.75 124.625C74.7604 124.469 74.7656 124.312 74.7656 124.156C74.7656 123.885 74.7604 123.62 74.75 123.359C74.75 123.099 74.7552 122.833 74.7656 122.562C74.776 122.469 74.7865 122.375 74.7969 122.281C74.8177 122.177 74.8281 122.078 74.8281 121.984C74.8281 121.714 74.8438 121.448 74.875 121.188C74.9062 120.927 74.9323 120.661 74.9531 120.391C74.974 120.182 74.9844 119.979 74.9844 119.781C74.9844 119.583 74.9844 119.385 74.9844 119.188C74.9844 118.802 74.9792 118.422 74.9688 118.047C74.9583 117.661 74.9531 117.281 74.9531 116.906C74.9531 116.781 74.9583 116.615 74.9688 116.406C74.9792 116.188 74.9688 116.021 74.9375 115.906C74.9479 115.604 74.9479 115.307 74.9375 115.016C74.9792 114.995 75 114.964 75 114.922C75.0104 114.88 75.0156 114.839 75.0156 114.797V114.578C75.1094 114.474 75.1875 114.422 75.25 114.422C75.3021 114.422 75.3542 114.427 75.4062 114.438C75.4583 114.448 75.5104 114.469 75.5625 114.5C75.6979 114.469 75.7865 114.464 75.8281 114.484C75.8698 114.505 75.9167 114.526 75.9688 114.547C76.0521 114.536 76.1094 114.5 76.1406 114.438C76.2552 114.458 76.3125 114.484 76.3125 114.516C76.3125 114.547 76.3229 114.578 76.3438 114.609C76.4479 114.62 76.5156 114.615 76.5469 114.594C76.5885 114.562 76.6354 114.542 76.6875 114.531C76.7812 114.552 76.8438 114.578 76.875 114.609C76.875 114.672 76.8906 114.745 76.9219 114.828C76.9531 114.901 76.9688 115 76.9688 115.125C76.9688 115.219 76.9635 115.312 76.9531 115.406C76.9427 115.49 76.9375 115.573 76.9375 115.656C76.9375 115.802 76.9427 115.943 76.9531 116.078C76.9635 116.214 76.9688 116.354 76.9688 116.5C76.9688 116.542 76.9635 116.583 76.9531 116.625C76.9531 116.656 76.9531 116.693 76.9531 116.734C76.9531 117.13 76.9635 117.531 76.9844 117.938C77.0052 118.344 77.0156 118.75 77.0156 119.156C77.0156 119.177 77.0104 119.208 77 119.25C76.9896 119.281 76.9948 119.307 77.0156 119.328C77.1927 119.141 77.3438 118.943 77.4688 118.734C77.5938 118.516 77.7292 118.302 77.875 118.094C78 117.938 78.125 117.75 78.25 117.531C78.3854 117.312 78.5 117.115 78.5938 116.938C78.6354 116.875 78.6719 116.812 78.7031 116.75C78.7344 116.688 78.7708 116.625 78.8125 116.562C78.8333 116.51 78.8594 116.464 78.8906 116.422C78.9323 116.37 78.9635 116.312 78.9844 116.25C79.0365 116.167 79.0833 116.089 79.125 116.016C79.1667 115.932 79.2135 115.849 79.2656 115.766C79.3177 115.682 79.3698 115.609 79.4219 115.547C79.4844 115.474 79.5417 115.401 79.5938 115.328C79.6771 115.193 79.7656 115.057 79.8594 114.922C79.9531 114.776 80.0365 114.63 80.1094 114.484C80.2135 114.432 80.3073 114.375 80.3906 114.312C80.474 114.24 80.5625 114.177 80.6562 114.125C80.7604 114.26 80.8333 114.354 80.875 114.406C80.9271 114.458 80.9948 114.49 81.0781 114.5C81.099 114.531 81.1094 114.568 81.1094 114.609C81.1198 114.651 81.1406 114.682 81.1719 114.703C81.2969 114.714 81.3698 114.714 81.3906 114.703C81.4219 114.755 81.4635 114.797 81.5156 114.828C81.5781 114.849 81.6354 114.87 81.6875 114.891C81.6875 114.922 81.6875 114.958 81.6875 115C81.6875 115.031 81.6927 115.057 81.7031 115.078C81.8281 115.13 81.8906 115.229 81.8906 115.375C81.6927 115.729 81.474 116.068 81.2344 116.391C81.0052 116.703 80.8021 117.042 80.625 117.406C80.5729 117.521 80.5104 117.63 80.4375 117.734C80.375 117.839 80.3229 117.948 80.2812 118.062C80.2083 118.135 80.151 118.214 80.1094 118.297C80.0677 118.37 80.0156 118.443 79.9531 118.516C79.9115 118.568 79.8698 118.625 79.8281 118.688C79.7865 118.74 79.7448 118.792 79.7031 118.844C79.6198 118.958 79.5417 119.078 79.4688 119.203C79.4062 119.318 79.3281 119.432 79.2344 119.547C79.1719 119.651 79.099 119.755 79.0156 119.859C78.9323 119.974 78.8594 120.104 78.7969 120.25C78.7448 120.385 78.6771 120.51 78.5938 120.625C78.5104 120.75 78.4635 120.844 78.4531 120.906C78.4531 120.958 78.4271 121.052 78.375 121.188C78.4479 121.302 78.5312 121.406 78.625 121.5C78.7188 121.594 78.8177 121.682 78.9219 121.766C79.0052 121.88 79.099 121.984 79.2031 122.078C79.3177 122.161 79.4323 122.255 79.5469 122.359C79.5885 122.401 79.625 122.443 79.6562 122.484C79.6875 122.516 79.724 122.547 79.7656 122.578C79.8802 122.703 80.0156 122.823 80.1719 122.938C80.3385 123.052 80.4948 123.161 80.6406 123.266C80.7552 123.37 80.8958 123.5 81.0625 123.656C81.2396 123.802 81.4219 123.964 81.6094 124.141C81.7969 124.307 81.9635 124.469 82.1094 124.625C82.2552 124.771 82.3281 124.865 82.3281 124.906C82.276 125.062 82.2135 125.161 82.1406 125.203C82.0781 125.234 82.0312 125.286 82 125.359C81.9375 125.38 81.9062 125.401 81.9062 125.422C81.9062 125.443 81.8906 125.479 81.8594 125.531C81.7865 125.583 81.724 125.646 81.6719 125.719C81.6198 125.781 81.5677 125.844 81.5156 125.906C81.474 125.927 81.4323 125.948 81.3906 125.969C81.3594 125.979 81.3333 126.005 81.3125 126.047L81.2031 126.031ZM85.6719 115.375C85.6719 115.469 85.6406 115.542 85.5781 115.594C85.5156 115.635 85.4583 115.693 85.4062 115.766C85.3021 115.859 85.2083 115.958 85.125 116.062C85.0521 116.156 84.9635 116.25 84.8594 116.344C84.8177 116.385 84.7604 116.443 84.6875 116.516C84.6146 116.578 84.5365 116.646 84.4531 116.719C84.3802 116.781 84.3021 116.839 84.2188 116.891C84.1458 116.943 84.0833 116.969 84.0312 116.969C83.9479 116.969 83.8385 116.943 83.7031 116.891C83.5781 116.828 83.4688 116.786 83.375 116.766C83.3021 116.755 83.2344 116.75 83.1719 116.75C83.1198 116.74 83.0677 116.708 83.0156 116.656C82.8281 116.615 82.7083 116.552 82.6562 116.469C82.6042 116.375 82.5469 116.281 82.4844 116.188C82.4844 116.146 82.5 116.12 82.5312 116.109C82.5625 116.099 82.5885 116.078 82.6094 116.047C82.7135 115.911 82.8021 115.802 82.875 115.719C82.9479 115.625 83.0312 115.531 83.125 115.438C83.3021 115.281 83.4688 115.12 83.625 114.953C83.7917 114.786 83.9635 114.63 84.1406 114.484C84.224 114.474 84.2865 114.443 84.3281 114.391C84.3698 114.339 84.4323 114.312 84.5156 114.312C84.599 114.312 84.6667 114.339 84.7188 114.391C84.7812 114.443 84.8333 114.505 84.875 114.578C84.9271 114.641 84.974 114.708 85.0156 114.781C85.0677 114.844 85.125 114.891 85.1875 114.922C85.2604 114.974 85.3594 115.042 85.4844 115.125C85.6094 115.208 85.6719 115.292 85.6719 115.375ZM83.5312 118.281C83.6042 118.323 83.6562 118.38 83.6875 118.453C83.7292 118.516 83.7865 118.562 83.8594 118.594C83.9219 118.625 83.9896 118.641 84.0625 118.641C84.1354 118.641 84.1979 118.651 84.25 118.672C84.2917 118.693 84.3229 118.719 84.3438 118.75C84.3646 118.781 84.3854 118.812 84.4062 118.844C84.4688 118.896 84.5625 118.943 84.6875 118.984C84.8229 119.026 84.9115 119.073 84.9531 119.125C85.026 119.219 85.0781 119.339 85.1094 119.484C85.151 119.63 85.1823 119.786 85.2031 119.953C85.224 120.109 85.2396 120.271 85.25 120.438C85.2604 120.594 85.276 120.729 85.2969 120.844C85.3177 121.083 85.3438 121.323 85.375 121.562C85.4062 121.792 85.4219 122.026 85.4219 122.266C85.4219 122.505 85.4115 122.75 85.3906 123C85.3698 123.25 85.3594 123.495 85.3594 123.734C85.3594 123.859 85.3542 124.016 85.3438 124.203C85.3438 124.391 85.3021 124.536 85.2188 124.641C85.2083 124.682 85.2031 124.755 85.2031 124.859V125.359C85.2031 125.422 85.2083 125.484 85.2188 125.547C85.2292 125.609 85.2344 125.677 85.2344 125.75C85.2344 125.865 85.2031 125.948 85.1406 126C85.1094 125.99 85.0729 125.984 85.0312 125.984C85 125.984 84.9688 125.984 84.9375 125.984C84.8229 125.984 84.7396 126.005 84.6875 126.047C84.5729 126.036 84.4635 126.026 84.3594 126.016C84.2552 126.005 84.1458 126 84.0312 126C83.8542 126 83.6615 126.026 83.4531 126.078C83.4115 125.974 83.3906 125.865 83.3906 125.75C83.401 125.635 83.3802 125.531 83.3281 125.438C83.3177 125.406 83.3073 125.38 83.2969 125.359C83.2969 125.328 83.2969 125.297 83.2969 125.266C83.3281 125.141 83.3438 125.057 83.3438 125.016C83.3438 124.964 83.3438 124.911 83.3438 124.859C83.3438 124.714 83.3385 124.568 83.3281 124.422C83.3177 124.266 83.3229 124.115 83.3438 123.969C83.3438 123.917 83.349 123.87 83.3594 123.828C83.3802 123.786 83.3906 123.74 83.3906 123.688C83.3906 123.635 83.3802 123.599 83.3594 123.578C83.3385 123.557 83.3281 123.531 83.3281 123.5C83.3281 123.469 83.3281 123.417 83.3281 123.344C83.3385 123.271 83.3542 123.224 83.375 123.203C83.375 123.12 83.375 123.042 83.375 122.969C83.3854 122.885 83.3906 122.807 83.3906 122.734C83.3906 122.568 83.3854 122.401 83.375 122.234C83.3646 122.068 83.3594 121.906 83.3594 121.75C83.3594 121.677 83.3542 121.63 83.3438 121.609C83.3333 121.589 83.3229 121.573 83.3125 121.562C83.3021 121.552 83.2865 121.547 83.2656 121.547C83.2448 121.536 83.2292 121.516 83.2188 121.484C83.2604 121.026 83.2448 120.568 83.1719 120.109C83.099 119.651 83.0625 119.188 83.0625 118.719C83.0625 118.646 83.0729 118.594 83.0938 118.562C83.1146 118.521 83.1406 118.49 83.1719 118.469C83.2031 118.448 83.2292 118.427 83.25 118.406C83.2812 118.375 83.3021 118.333 83.3125 118.281C83.3958 118.302 83.4688 118.302 83.5312 118.281ZM92.3906 114.344C92.5573 114.323 92.6823 114.339 92.7656 114.391C92.8594 114.432 92.9531 114.458 93.0469 114.469C93.099 114.479 93.151 114.484 93.2031 114.484C93.2656 114.474 93.3281 114.469 93.3906 114.469C93.526 114.469 93.6302 114.484 93.7031 114.516C93.7865 114.547 93.8698 114.615 93.9531 114.719C93.974 114.74 94 114.771 94.0312 114.812C94.0729 114.844 94.0938 114.875 94.0938 114.906C94.0938 114.99 94.0729 115.062 94.0312 115.125C93.9896 115.188 93.9688 115.276 93.9688 115.391C93.9688 115.568 93.9896 115.745 94.0312 115.922C94.0729 116.089 94.099 116.26 94.1094 116.438C94.1615 117.083 94.1875 117.734 94.1875 118.391C94.1979 119.036 94.2031 119.677 94.2031 120.312C94.2031 120.396 94.1979 120.474 94.1875 120.547C94.1875 120.609 94.1667 120.667 94.125 120.719V120.922C94.1146 121.193 94.1198 121.469 94.1406 121.75C94.1615 122.021 94.1719 122.292 94.1719 122.562C94.1719 122.802 94.1562 123.042 94.125 123.281C94.1042 123.521 94.0938 123.766 94.0938 124.016C94.0938 124.245 94.1094 124.469 94.1406 124.688C94.1719 124.906 94.1875 125.13 94.1875 125.359C94.1354 125.453 94.1042 125.526 94.0938 125.578C94.0833 125.63 94.0625 125.677 94.0312 125.719C94 125.74 93.9635 125.745 93.9219 125.734C93.8906 125.724 93.8646 125.734 93.8438 125.766C93.7917 125.828 93.7552 125.901 93.7344 125.984C93.7135 126.068 93.6615 126.135 93.5781 126.188C93.5573 126.333 93.5 126.443 93.4062 126.516C93.3229 126.599 93.2604 126.703 93.2188 126.828C93.0938 126.839 93.0052 126.833 92.9531 126.812C92.9115 126.792 92.8646 126.771 92.8125 126.75C92.8021 126.573 92.8021 126.443 92.8125 126.359C92.8333 126.286 92.8438 126.208 92.8438 126.125C92.8438 126.021 92.8177 125.943 92.7656 125.891C92.7135 125.839 92.6771 125.771 92.6562 125.688C92.5417 125.615 92.4635 125.568 92.4219 125.547C92.3802 125.516 92.3438 125.479 92.3125 125.438C92.25 125.354 92.1979 125.266 92.1562 125.172C92.1146 125.078 92.0677 124.99 92.0156 124.906C91.8698 124.667 91.7188 124.422 91.5625 124.172C91.4167 123.922 91.2552 123.677 91.0781 123.438C91.0469 123.385 91.0104 123.339 90.9688 123.297C90.9271 123.255 90.8906 123.208 90.8594 123.156C90.6823 122.875 90.5156 122.589 90.3594 122.297C90.2031 122.005 90.0208 121.729 89.8125 121.469C89.7292 121.365 89.6667 121.25 89.625 121.125C89.5833 120.99 89.5208 120.875 89.4375 120.781C89.4271 120.833 89.4219 120.891 89.4219 120.953C89.4219 121.016 89.4219 121.073 89.4219 121.125C89.4219 121.479 89.4271 121.833 89.4375 122.188C89.4583 122.531 89.4688 122.88 89.4688 123.234C89.4688 123.307 89.4583 123.375 89.4375 123.438C89.4271 123.49 89.4219 123.552 89.4219 123.625C89.4219 123.729 89.4271 123.828 89.4375 123.922C89.4479 124.016 89.4531 124.109 89.4531 124.203C89.4531 124.318 89.4479 124.427 89.4375 124.531C89.4375 124.635 89.4323 124.74 89.4219 124.844C89.401 124.979 89.375 125.109 89.3438 125.234C89.3125 125.349 89.2969 125.469 89.2969 125.594C89.2969 125.667 89.3021 125.734 89.3125 125.797C89.3333 125.859 89.3438 125.917 89.3438 125.969C89.2708 126.083 89.1771 126.141 89.0625 126.141C88.9583 126.141 88.8698 126.182 88.7969 126.266C88.7344 126.255 88.6823 126.26 88.6406 126.281C88.6094 126.302 88.5781 126.312 88.5469 126.312C88.5052 126.312 88.4688 126.307 88.4375 126.297C88.4167 126.286 88.3906 126.281 88.3594 126.281C88.3073 126.281 88.2552 126.307 88.2031 126.359C88.151 126.411 88.099 126.438 88.0469 126.438C88.0156 126.438 87.9583 126.417 87.875 126.375C87.8021 126.333 87.7188 126.281 87.625 126.219C87.5417 126.167 87.4635 126.109 87.3906 126.047C87.3177 125.995 87.2812 125.953 87.2812 125.922C87.2708 125.87 87.2656 125.797 87.2656 125.703C87.2656 125.578 87.2708 125.458 87.2812 125.344C87.3021 125.219 87.3229 125.094 87.3438 124.969C87.375 124.615 87.3906 124.266 87.3906 123.922C87.3906 123.568 87.3906 123.214 87.3906 122.859C87.3906 122.714 87.3906 122.568 87.3906 122.422C87.401 122.276 87.4062 122.13 87.4062 121.984C87.4062 121.641 87.3906 121.297 87.3594 120.953C87.3385 120.599 87.3281 120.25 87.3281 119.906C87.3281 119.667 87.3385 119.432 87.3594 119.203C87.3802 118.964 87.3906 118.729 87.3906 118.5C87.3906 118.323 87.3854 118.151 87.375 117.984C87.3646 117.818 87.3594 117.646 87.3594 117.469C87.349 117.354 87.349 117.234 87.3594 117.109C87.3698 116.974 87.375 116.849 87.375 116.734C87.375 116.599 87.3542 116.474 87.3125 116.359C87.2812 116.234 87.2656 116.12 87.2656 116.016C87.2656 115.953 87.276 115.896 87.2969 115.844C87.3281 115.781 87.3438 115.719 87.3438 115.656C87.3438 115.573 87.3281 115.49 87.2969 115.406C87.276 115.323 87.2656 115.24 87.2656 115.156C87.2656 115.073 87.276 114.995 87.2969 114.922C87.3177 114.849 87.3281 114.771 87.3281 114.688C87.474 114.615 87.6042 114.578 87.7188 114.578C87.8333 114.578 87.9167 114.62 87.9688 114.703C87.9688 114.891 87.9792 115.036 88 115.141C88.0208 115.234 88.0365 115.333 88.0469 115.438C88.0469 115.5 88.0417 115.573 88.0312 115.656C88.0312 115.74 88.0365 115.823 88.0469 115.906C88.0573 115.979 88.0781 116.042 88.1094 116.094C88.151 116.146 88.2188 116.172 88.3125 116.172C88.3333 116.224 88.3594 116.271 88.3906 116.312C88.4219 116.354 88.4427 116.406 88.4531 116.469C88.5156 116.427 88.5521 116.37 88.5625 116.297C88.5729 116.224 88.5729 116.156 88.5625 116.094C88.6146 116.115 88.6615 116.125 88.7031 116.125C88.7448 116.115 88.7865 116.12 88.8281 116.141C88.849 116.286 88.875 116.417 88.9062 116.531C88.9375 116.635 88.9479 116.76 88.9375 116.906C89.1458 117.062 89.3229 117.286 89.4688 117.578C89.625 117.859 89.7708 118.115 89.9062 118.344C89.9792 118.458 90.0625 118.568 90.1562 118.672C90.2604 118.766 90.3385 118.88 90.3906 119.016C90.474 119.068 90.5417 119.135 90.5938 119.219C90.6458 119.302 90.6927 119.385 90.7344 119.469C90.9427 119.833 91.1719 120.188 91.4219 120.531C91.6719 120.875 91.9323 121.214 92.2031 121.547C92.2135 121.474 92.2188 121.406 92.2188 121.344C92.2188 121.271 92.2188 121.198 92.2188 121.125L92.2031 119.719C92.2031 119.635 92.1979 119.557 92.1875 119.484C92.1875 119.411 92.1823 119.333 92.1719 119.25C92.151 118.979 92.1458 118.714 92.1562 118.453C92.1667 118.193 92.1667 117.927 92.1562 117.656C92.1354 117.375 92.1198 117.089 92.1094 116.797C92.1094 116.505 92.099 116.214 92.0781 115.922C92.0677 115.745 92.0573 115.568 92.0469 115.391C92.0365 115.214 92.0312 115.036 92.0312 114.859C92.0312 114.641 92.0521 114.443 92.0938 114.266C92.1146 114.245 92.1354 114.229 92.1562 114.219C92.1875 114.198 92.224 114.188 92.2656 114.188C92.3281 114.188 92.3698 114.24 92.3906 114.344ZM104.234 120.016C104.255 120.089 104.297 120.167 104.359 120.25C104.422 120.333 104.453 120.396 104.453 120.438C104.37 120.635 104.307 120.792 104.266 120.906C104.224 121.01 104.156 121.104 104.062 121.188C104.062 121.219 104.031 121.286 103.969 121.391C103.906 121.495 103.833 121.609 103.75 121.734C103.677 121.849 103.599 121.964 103.516 122.078C103.443 122.182 103.396 122.255 103.375 122.297C103.323 122.38 103.281 122.464 103.25 122.547C103.219 122.62 103.182 122.693 103.141 122.766C103.047 122.932 102.948 123.089 102.844 123.234C102.75 123.38 102.661 123.542 102.578 123.719C102.526 123.771 102.479 123.828 102.438 123.891C102.396 123.953 102.349 124.01 102.297 124.062C102.172 124.292 102.026 124.505 101.859 124.703C101.703 124.901 101.557 125.12 101.422 125.359C101.536 125.474 101.594 125.62 101.594 125.797C101.594 125.891 101.568 125.943 101.516 125.953C101.464 125.953 101.417 125.964 101.375 125.984C101.271 126.057 101.177 126.099 101.094 126.109C101.01 126.12 100.943 126.125 100.891 126.125C100.776 126.125 100.651 126.12 100.516 126.109C100.38 126.109 100.266 126.12 100.172 126.141C100.141 126.151 100.104 126.167 100.062 126.188C100.021 126.219 99.9896 126.234 99.9688 126.234C99.8854 126.234 99.8229 126.219 99.7812 126.188C99.75 126.167 99.7031 126.146 99.6406 126.125C99.5573 126.031 99.4792 125.932 99.4062 125.828C99.3438 125.724 99.276 125.62 99.2031 125.516C99.1406 125.443 99.0729 125.38 99 125.328C98.9271 125.266 98.8594 125.193 98.7969 125.109C98.6302 124.87 98.4583 124.641 98.2812 124.422C98.1146 124.203 97.9427 123.984 97.7656 123.766C97.6823 123.651 97.5885 123.542 97.4844 123.438C97.3906 123.333 97.3021 123.229 97.2188 123.125C97.1354 123.01 97.0573 122.891 96.9844 122.766C96.9115 122.641 96.8333 122.521 96.75 122.406C96.6875 122.302 96.599 122.177 96.4844 122.031C96.3698 121.875 96.25 121.719 96.125 121.562C96 121.406 95.8698 121.26 95.7344 121.125C95.6094 120.979 95.5 120.87 95.4062 120.797C95.4062 120.724 95.3854 120.672 95.3438 120.641C95.3021 120.609 95.2552 120.573 95.2031 120.531C95.1823 120.479 95.1562 120.432 95.125 120.391C95.0938 120.339 95.0781 120.281 95.0781 120.219C95.0781 120.146 95.0938 120.078 95.125 120.016C95.1458 119.974 95.1562 119.938 95.1562 119.906C95.1667 119.865 95.1823 119.823 95.2031 119.781C95.2552 119.646 95.3281 119.526 95.4219 119.422C95.526 119.318 95.6042 119.198 95.6562 119.062C95.6667 119.021 95.6719 118.984 95.6719 118.953C95.6719 118.911 95.6823 118.87 95.7031 118.828C95.7344 118.755 95.7812 118.693 95.8438 118.641C95.9062 118.578 95.9635 118.51 96.0156 118.438C96.0677 118.344 96.1198 118.25 96.1719 118.156C96.224 118.062 96.276 117.969 96.3281 117.875C96.474 117.635 96.6354 117.406 96.8125 117.188C96.9896 116.958 97.1562 116.734 97.3125 116.516C97.4583 116.307 97.5938 116.104 97.7188 115.906C97.8438 115.698 97.9792 115.49 98.125 115.281C98.1979 115.177 98.2812 115.062 98.375 114.938C98.4688 114.802 98.5625 114.672 98.6562 114.547C98.7604 114.422 98.8646 114.307 98.9688 114.203C99.0729 114.089 99.1771 114.005 99.2812 113.953C99.4583 113.932 99.5729 113.964 99.625 114.047C99.6771 114.12 99.75 114.156 99.8438 114.156C99.9896 114.188 100.089 114.234 100.141 114.297C100.193 114.359 100.245 114.417 100.297 114.469C100.432 114.469 100.547 114.495 100.641 114.547C100.734 114.599 100.828 114.677 100.922 114.781C100.88 114.896 100.823 115 100.75 115.094C100.688 115.188 100.63 115.286 100.578 115.391C100.495 115.422 100.432 115.474 100.391 115.547C100.359 115.62 100.307 115.682 100.234 115.734C100.12 115.911 100.005 116.089 99.8906 116.266C99.776 116.432 99.6615 116.594 99.5469 116.75C99.4948 116.812 99.4375 116.865 99.375 116.906C99.3125 116.938 99.2552 116.99 99.2031 117.062C99.1823 117.094 99.1667 117.13 99.1562 117.172C99.1458 117.203 99.1302 117.234 99.1094 117.266C98.9844 117.464 98.8438 117.656 98.6875 117.844C98.5312 118.031 98.3958 118.229 98.2812 118.438C98.2292 118.51 98.1875 118.589 98.1562 118.672C98.125 118.745 98.0885 118.818 98.0469 118.891C98.0052 118.964 97.9427 119.057 97.8594 119.172C97.7865 119.276 97.7083 119.385 97.625 119.5C97.5521 119.615 97.4844 119.729 97.4219 119.844C97.3698 119.958 97.3438 120.052 97.3438 120.125C97.3542 120.177 97.4219 120.281 97.5469 120.438C97.6719 120.594 97.8125 120.76 97.9688 120.938C98.125 121.115 98.2708 121.286 98.4062 121.453C98.5521 121.609 98.6406 121.703 98.6719 121.734C98.6927 121.786 98.7708 121.901 98.9062 122.078C99.0417 122.245 99.1927 122.432 99.3594 122.641C99.5365 122.839 99.7083 123.031 99.875 123.219C100.042 123.406 100.156 123.542 100.219 123.625L100.344 123.828C100.365 123.818 100.417 123.745 100.5 123.609C100.594 123.474 100.688 123.323 100.781 123.156C100.875 122.99 100.958 122.833 101.031 122.688C101.115 122.542 101.167 122.448 101.188 122.406C101.219 122.375 101.271 122.292 101.344 122.156C101.417 122.021 101.495 121.875 101.578 121.719C101.672 121.562 101.75 121.417 101.812 121.281C101.885 121.146 101.927 121.057 101.938 121.016H101.75C101.583 121.016 101.417 121.026 101.25 121.047C101.094 121.057 100.932 121.089 100.766 121.141C100.693 121.13 100.63 121.109 100.578 121.078C100.526 121.047 100.464 121.016 100.391 120.984C100.359 120.88 100.344 120.807 100.344 120.766C100.354 120.724 100.354 120.693 100.344 120.672C100.333 120.63 100.318 120.599 100.297 120.578C100.286 120.557 100.281 120.526 100.281 120.484C100.281 120.411 100.271 120.354 100.25 120.312C100.229 120.26 100.208 120.203 100.188 120.141C100.188 120.099 100.188 120.057 100.188 120.016C100.198 119.974 100.193 119.938 100.172 119.906C100.193 119.719 100.177 119.583 100.125 119.5C100.125 119.354 100.146 119.26 100.188 119.219C100.229 119.177 100.26 119.115 100.281 119.031C100.375 119.062 100.453 119.057 100.516 119.016C100.589 118.964 100.661 118.938 100.734 118.938C100.901 118.938 101.036 118.911 101.141 118.859C101.234 118.849 101.328 118.844 101.422 118.844C101.526 118.844 101.625 118.833 101.719 118.812C101.771 118.802 101.812 118.792 101.844 118.781C101.885 118.771 101.932 118.76 101.984 118.75C102.047 118.74 102.115 118.734 102.188 118.734C102.26 118.734 102.328 118.734 102.391 118.734C102.557 118.714 102.724 118.703 102.891 118.703C103.057 118.693 103.224 118.682 103.391 118.672C103.443 118.693 103.49 118.708 103.531 118.719C103.583 118.729 103.63 118.745 103.672 118.766C103.703 118.786 103.729 118.812 103.75 118.844C103.771 118.865 103.807 118.88 103.859 118.891C103.911 118.943 103.948 118.995 103.969 119.047C103.948 119.141 103.953 119.208 103.984 119.25C103.932 119.302 103.901 119.375 103.891 119.469C103.891 119.552 103.885 119.63 103.875 119.703C103.948 119.724 104.01 119.781 104.062 119.875C104.115 119.969 104.151 120.016 104.172 120.016H104.234ZM108.453 114.484C108.474 114.526 108.495 114.557 108.516 114.578C108.547 114.589 108.568 114.62 108.578 114.672C108.651 114.724 108.708 114.766 108.75 114.797C108.792 114.818 108.818 114.859 108.828 114.922C108.922 114.995 108.974 115.042 108.984 115.062C109.005 115.083 109.021 115.109 109.031 115.141C109.083 115.182 109.13 115.219 109.172 115.25C109.224 115.281 109.26 115.328 109.281 115.391C109.365 115.464 109.417 115.521 109.438 115.562C109.458 115.604 109.474 115.651 109.484 115.703C109.443 115.776 109.359 115.875 109.234 116C109.109 116.125 108.969 116.26 108.812 116.406C108.656 116.542 108.505 116.677 108.359 116.812C108.214 116.938 108.099 117.036 108.016 117.109C107.995 117.151 107.969 117.188 107.938 117.219C107.906 117.25 107.88 117.286 107.859 117.328C107.797 117.38 107.74 117.438 107.688 117.5C107.635 117.552 107.573 117.594 107.5 117.625C107.396 117.771 107.25 117.917 107.062 118.062C106.875 118.198 106.75 118.333 106.688 118.469C106.698 118.5 106.719 118.531 106.75 118.562C106.792 118.594 106.823 118.62 106.844 118.641C106.927 118.724 107.026 118.802 107.141 118.875C107.255 118.938 107.354 119.01 107.438 119.094C107.521 119.167 107.604 119.24 107.688 119.312C107.771 119.375 107.854 119.443 107.938 119.516C107.979 119.557 108.031 119.62 108.094 119.703C108.198 119.786 108.297 119.865 108.391 119.938C108.495 120 108.594 120.073 108.688 120.156C108.885 120.323 109.078 120.495 109.266 120.672C109.453 120.839 109.651 121.005 109.859 121.172L109.984 121.312C109.984 121.396 110.005 121.495 110.047 121.609C110.099 121.714 110.146 121.802 110.188 121.875C110.167 121.979 110.167 122.047 110.188 122.078C110.219 122.099 110.245 122.12 110.266 122.141C110.255 122.339 110.26 122.469 110.281 122.531C110.104 122.688 109.938 122.833 109.781 122.969C109.635 123.094 109.505 123.219 109.391 123.344C109.297 123.458 109.198 123.562 109.094 123.656C109 123.74 108.896 123.833 108.781 123.938C108.719 124.021 108.667 124.078 108.625 124.109C108.552 124.182 108.479 124.24 108.406 124.281C108.281 124.396 108.156 124.505 108.031 124.609C107.917 124.714 107.802 124.818 107.688 124.922C107.604 124.995 107.526 125.068 107.453 125.141C107.38 125.203 107.307 125.276 107.234 125.359C107.172 125.422 107.099 125.495 107.016 125.578C106.943 125.661 106.865 125.729 106.781 125.781C106.75 125.844 106.708 125.901 106.656 125.953C106.604 125.995 106.557 126.042 106.516 126.094C106.443 126.135 106.375 126.177 106.312 126.219C106.25 126.26 106.177 126.302 106.094 126.344C106.01 126.281 105.927 126.224 105.844 126.172C105.771 126.12 105.688 126.083 105.594 126.062C105.531 126.01 105.484 125.958 105.453 125.906C105.422 125.854 105.365 125.818 105.281 125.797C105.26 125.766 105.234 125.734 105.203 125.703C105.182 125.661 105.161 125.62 105.141 125.578C105.016 125.568 104.917 125.49 104.844 125.344C104.865 125.281 104.891 125.234 104.922 125.203C104.964 125.172 104.974 125.115 104.953 125.031C105.016 124.927 105.089 124.839 105.172 124.766C105.266 124.682 105.354 124.599 105.438 124.516C105.531 124.432 105.615 124.349 105.688 124.266C105.771 124.172 105.859 124.083 105.953 124C106.005 123.948 106.057 123.901 106.109 123.859C106.161 123.807 106.219 123.755 106.281 123.703C106.396 123.589 106.51 123.484 106.625 123.391C106.75 123.286 106.875 123.177 107 123.062C107.167 122.896 107.339 122.74 107.516 122.594C107.693 122.438 107.854 122.266 108 122.078C107.99 122.036 107.974 122.01 107.953 122C107.932 121.979 107.917 121.953 107.906 121.922C107.74 121.766 107.573 121.615 107.406 121.469C107.25 121.312 107.078 121.177 106.891 121.062C106.828 121 106.786 120.948 106.766 120.906C106.578 120.771 106.396 120.62 106.219 120.453C106.052 120.286 105.865 120.146 105.656 120.031C105.615 119.979 105.562 119.938 105.5 119.906C105.448 119.865 105.396 119.828 105.344 119.797C105.312 119.745 105.276 119.703 105.234 119.672C105.203 119.63 105.161 119.599 105.109 119.578C105.026 119.505 104.969 119.448 104.938 119.406C104.917 119.354 104.875 119.323 104.812 119.312C104.792 119.26 104.755 119.219 104.703 119.188C104.661 119.156 104.615 119.12 104.562 119.078C104.542 119.016 104.51 118.964 104.469 118.922C104.458 118.839 104.464 118.781 104.484 118.75C104.505 118.708 104.521 118.677 104.531 118.656C104.521 118.594 104.495 118.547 104.453 118.516C104.401 118.484 104.375 118.432 104.375 118.359C104.375 118.318 104.391 118.292 104.422 118.281C104.443 118.26 104.458 118.234 104.469 118.203L104.516 117.969C104.599 117.906 104.667 117.833 104.719 117.75C104.781 117.656 104.859 117.583 104.953 117.531C105.057 117.375 105.188 117.245 105.344 117.141C105.396 117.057 105.458 116.99 105.531 116.938C105.615 116.885 105.682 116.818 105.734 116.734C105.818 116.682 105.885 116.625 105.938 116.562C106 116.5 106.073 116.443 106.156 116.391C106.177 116.349 106.198 116.318 106.219 116.297C106.25 116.266 106.271 116.234 106.281 116.203C106.562 115.932 106.807 115.698 107.016 115.5C107.234 115.302 107.458 115.104 107.688 114.906C107.75 114.854 107.812 114.797 107.875 114.734C107.938 114.672 108.005 114.615 108.078 114.562C108.099 114.542 108.125 114.531 108.156 114.531C108.188 114.531 108.219 114.521 108.25 114.5C108.375 114.5 108.443 114.495 108.453 114.484Z" fill="#07C6F9"/>
<defs>
<linearGradient id="paint0_linear_3_127" x1="52.5623" y1="63.8271" x2="37.2148" y2="37.2445" gradientUnits="userSpaceOnUse">
<stop stop-opacity="0"/>
<stop offset="1" stop-opacity="0.4"/>
</linearGradient>
<clipPath id="clip0_3_127">
<rect width="116" height="116" fill="white"/>
</clipPath>
</defs>
</svg>
