<svg width="15" height="20" viewBox="0 0 15 20" fill="none" xmlns="http://www.w3.org/2000/svg">
<path d="M10.7658 9.81657C10.7658 10.1588 10.4884 10.4363 10.1461 10.4363C9.80387 10.4363 9.52642 10.1588 9.52642 9.81657C9.52642 9.47432 9.80387 9.19687 10.1461 9.19687C10.4884 9.19687 10.7658 9.47432 10.7658 9.81657Z" fill="#07C6F9"/>
<path d="M8.36164 9.81657C8.36164 10.1588 8.08419 10.4363 7.74194 10.4363C7.39969 10.4363 7.12225 10.1588 7.12225 9.81657C7.12225 9.47432 7.39969 9.19687 7.74194 9.19687C8.08419 9.19687 8.36164 9.47432 8.36164 9.81657Z" fill="#07C6F9"/>
<path d="M5.88269 9.81657C5.88269 10.1588 5.60524 10.4363 5.26299 10.4363C4.92074 10.4363 4.64329 10.1588 4.64329 9.81657C4.64329 9.47432 4.92074 9.19687 5.26299 9.19687C5.60524 9.19687 5.88269 9.47432 5.88269 9.81657Z" fill="#07C6F9"/>
<path d="M14.5213 17.6L14.5213 2.03318C14.5213 1.63216 14.362 1.24756 14.0784 0.963991C13.7948 0.680425 13.4102 0.521119 13.0092 0.521119L10.6172 0.521119C10.3622 0.523894 10.1165 0.616926 9.92364 0.783697C9.73077 0.950469 9.60325 1.18019 9.5637 1.43207C9.49377 1.87311 9.26743 2.27425 8.92607 2.56214C8.5847 2.85002 8.15112 3.00542 7.70461 2.99991C7.25718 3.00519 6.82285 2.84893 6.48135 2.55979C6.13985 2.27065 5.91409 1.86805 5.84551 1.42588C5.80581 1.1746 5.67805 0.945622 5.48506 0.779875C5.29207 0.614129 5.04642 0.522413 4.79203 0.521118L2.4 0.521118C1.99898 0.521118 1.61438 0.680424 1.33081 0.96399C1.04725 1.24756 0.887939 1.63216 0.887939 2.03318L0.887939 17.6C0.887939 18.001 1.04724 18.3856 1.33081 18.6692C1.61438 18.9527 1.99898 19.112 2.4 19.112L4.79203 19.112C5.04734 19.1105 5.29372 19.0179 5.48684 18.8509C5.67996 18.6839 5.80715 18.4535 5.84551 18.2011C5.91544 17.76 6.14178 17.3589 6.48314 17.071C6.82451 16.7831 7.25809 16.6277 7.7046 16.6332C8.15203 16.628 8.58636 16.7842 8.92786 17.0734C9.26936 17.3625 9.49512 17.7651 9.5637 18.2073C9.60457 18.458 9.73267 18.6863 9.9254 18.8518C10.1181 19.0173 10.3631 19.1095 10.6172 19.112L13.0092 19.112C13.4102 19.112 13.7948 18.9527 14.0784 18.6692C14.362 18.3856 14.5213 18.001 14.5213 17.6ZM10.7535 1.76051L13.0154 1.76051C13.0877 1.76051 13.1571 1.78924 13.2082 1.84037C13.2593 1.89151 13.2881 1.96086 13.2881 2.03318L13.2881 17.6C13.2881 17.6723 13.2593 17.7416 13.2082 17.7928C13.1571 17.8439 13.0877 17.8726 13.0154 17.8726L10.7535 17.8726C10.6208 17.1619 10.2436 16.5199 9.68734 16.0579C9.13108 15.5959 8.43078 15.343 7.7077 15.343C6.98463 15.343 6.28432 15.5959 5.72807 16.0579C5.17182 16.5199 4.79465 17.1619 4.66189 17.8726L2.4 17.8726C2.32768 17.8726 2.25833 17.8439 2.20719 17.7928C2.15606 17.7416 2.12733 17.6723 2.12733 17.6L2.12733 2.03318C2.12733 1.96086 2.15606 1.89151 2.2072 1.84037C2.25833 1.78924 2.32768 1.76051 2.4 1.76051L4.66189 1.76051C4.79465 2.47129 5.17182 3.11326 5.72807 3.57524C6.28432 4.03721 6.98463 4.2901 7.7077 4.2901C8.43078 4.2901 9.13108 4.03721 9.68734 3.57524C10.2436 3.11326 10.6208 2.47129 10.7535 1.76051Z" fill="white"/>
</svg>
